SplineFontDB: 3.0
FontName: m1
FullName: m1
FamilyName: m1
Weight: Medium
Copyright: Created by Khaled Hosny with Sorts Mill Tools 2.1.0_alpha1 <http://bitbucket.org/sortsmill/sortsmill-tools>
UComments: "2015-10-10: Created." 
Version: 001.000
StrokeWidth: 83
ItalicAngle: 0
UnderlinePosition: -100
UnderlineWidth: 50
Ascent: 800
Descent: 200
LayerCount: 2
Layer: 0 0 "Back"  1
Layer: 1 0 "Fore"  0
XUID: [1021 670 513581992 4353041]
FSType: 8
OS2_WeightWidthSlopeOnly: 0
OS2_UseTypoMetrics: 1
CreationTime: 1444496159
ModificationTime: 1444937018
PfmFamily: 17
TTFWeight: 500
TTFWidth: 5
LineGap: 90
VLineGap: 0
OS2TypoAscent: 0
OS2TypoAOffset: 1
OS2TypoDescent: 0
OS2TypoDOffset: 1
OS2TypoLinegap: 90
OS2WinAscent: 0
OS2WinAOffset: 1
OS2WinDescent: 0
OS2WinDOffset: 1
HheadAscent: 0
HheadAOffset: 1
HheadDescent: 0
HheadDOffset: 1
OS2Vendor: 'BLQ '
MarkAttachClasses: 1
DEI: 91125
LangName: 1033 
Encoding: UnicodeBmp
Compacted: 1
UnicodeInterp: none
NameList: AGL For New Fonts
DisplaySize: -48
AntiAlias: 1
FitToEm: 0
WinInfo: 0 9 8
BeginPrivate: 0
EndPrivate
BeginChars: 65564 64

StartChar: uni0627
Encoding: 1575 1575 0
Width: 1000
VWidth: 0
Flags: H
LayerCount: 2
Back
SplineSet
473 100.547169811 m 2
 473 102.201001089 473.293633976 103.84271795 473.293633976 105.505726815 c 1
 473.281797829 105.84966324 473.5 105.751580589 473.5 109 c 0
 473.5 660 l 1
 578.5 660 l 1
 578.5 109.819937816 l 1
 578.779514745 102.211502705 580.483235947 78.6640754172 566.057261715 51.6948230008 c 0
 550.556944256 22.7170938483 515.961920091 0.5 473 0.5 c 1
 473 100.547169811 l 2
526.221679688 659.751953125 m 1
 526.483398438 108.983398438 l 2
 526.483398438 105.452148438 531.424804688 52.8193359375 473.412109375 52.8193359375 c 2
EndSplineSet
Fore
SplineSet
473.5 660 m 1
 578.5 660 l 1
 578.5 109.819937816 l 2
 578.5 46.912109375 538.790120746 0.5 473 0.5 c 1
 473.5 660 l 1
EndSplineSet
EndChar

StartChar: uni062D
Encoding: 1581 1581 1
Width: 1000
VWidth: 0
Flags: HW
LayerCount: 2
Back
SplineSet
643.217840448 -186.500451949 m 1
 642.782159552 -291.499548051 l 1
 402.488808657 -290.502480205 l 5
 324.647776127 -291.338519471 265.5 -232.633249032 265.5 -158 c 4
 265.5 -43 l 4
 265.5 29.2773431344 324.750403467 105.5 410 105.5 c 4
 542.792366137 105.5 l 1
 539.267968935 109.260473275 538.517465608 110.083926908 536.132685365 112.707185175 c 1
 490.048911055 163.51750044 457.777401387 224.816544159 362.420664886 260.897471484 c 1
 399.579335114 359.102528516 l 1
 526.235932228 311.17841069 581.927667205 218.50832353 613.887749324 183.270284271 c 0
 643.14447149 151.087889887 668.778263289 135.5 682 135.5 c 0
 734.5 135.5 l 1
 734.5 83 l 0
 734.5 60.379392049 716.943104981 -2.94128361005 655 0.5 c 1
 410 0.5 l 4
 393.249596533 0.5 370.5 -23.2773431344 370.5 -43 c 4
 370.5 -158 l 4
 370.5 -174.804687326 379.219354577 -185.953979325 401.573253143 -185.497777313 c 5
 643.217840448 -186.500451949 l 1
503.6328125 -94.9296875 m 1
 503.6328125 -94.9296875 l 1
584.141601562 331.440429688 m 1
 584.141601562 331.440429688 l 1
642.833007812 -238.53515625 m 1
 402.47265625 -238.422851562 l 2
 353.530273438 -239.265625 317.764648438 -203.99609375 317.801757812 -158.372070312 c 2
 317.658203125 -43.044921875 l 2
 317.608398438 2.7509765625 358.1640625 52.57421875 409.5078125 52.521484375 c 2
 655.309570312 52.521484375 l 2
 673.782800008 52.0199102599 682.67600563 74.0060958051 682.1953125 83.0498046875 c 1
 640.741210938 83.2080078125 605.44921875 115.211914062 575.213867188 148.44140625 c 0
 536.340820312 191.198242188 491.860351562 267.147460938 380.987304688 309.603515625 c 9
EndSplineSet
Fore
SplineSet
643 -185 m 1
 643 -291 l 1
 402 -291 l 2
 324 -292 266 -233 266 -158 c 2
 266 -33 l 2
 266 39 321 106 406 106 c 2
 543 106 l 1
 539 110 538 110 536 113 c 0
 490 164 457 225 362 261 c 1
 400 359 l 1
 527 311 582 218 614 183 c 0
 662 130 666 136 734 136 c 1
 734 83 l 0
 734 60 717 0 655 0 c 2
 405 0 l 2
 388 0 370 -13 370 -33 c 2
 370 -158 l 2
 370 -175 380 -185 402 -185 c 2
 643 -185 l 1
EndSplineSet
EndChar

StartChar: uni062F
Encoding: 1583 1583 2
Width: 1000
VWidth: 0
Flags: HW
LayerCount: 2
Back
SplineSet
448.521286236 283.042572473 m 1
 495.478713764 376.957427527 l 1
 563.095986093 343.148791363 710.5 266.178515007 710.5 104 c 0
 710.5 45.5859728084 665.472826731 -0.5 606 -0.5 c 2
 342 -0.5 l 1
 342 104.5 l 1
 605.397646499 104.5 l 5
 599.205246959 198.057705113 520.66464413 246.970893525 448.521286236 283.042572473 c 1
472.291015625 329.643554688 m 17
 543.9453125 293.192382812 652.177734375 233.116210938 658.130859375 103.891601562 c 4
 658.603515625 80.5166015625 643.462890625 52.4052734375 605.6640625 52.4052734375 c 2
 341.859375 52.4052734375 l 1
EndSplineSet
Fore
SplineSet
448.521286236 283.042572473 m 1
 495.478713764 376.957427527 l 1
 563.095986093 343.148791363 710.5 266.178515007 710.5 104 c 0
 710.5 45.5859728084 665.472826731 -0.5 606 -0.5 c 2
 342 -0.5 l 1
 342 104.5 l 1
 625.5 104.5 l 1
 605.397460938 84.5 l 1
 609.205078125 195.057617188 520.66464413 246.970893525 448.521286236 283.042572473 c 1
EndSplineSet
EndChar

StartChar: uni0631
Encoding: 1585 1585 3
Width: 1000
VWidth: 0
Flags: HW
LayerCount: 2
Back
SplineSet
543.403320312 187.49609375 m 1
 543.403320312 -1.0576171875 l 2
 543.403320312 -83.1875 484.76953125 -147.631835938 403.9453125 -147.631835938 c 2
 302.1953125 -147.631835938 l 1
697.8046875 52.84765625 m 1
 572.575195312 52.84765625 l 1
EndSplineSet
Fore
SplineSet
490.5 187 m 1
 595.5 187 l 1
 595.5 -1 l 2
 595.5 -108.12219483 516.484305946 -200.5 404 -200.5 c 2
 302 -200.5 l 1
 302 -95.5 l 1
 404 -95.5 l 2
 453.515694054 -95.5 490.5 -57.8778051701 490.5 -1 c 2
 490.5 187 l 1
EndSplineSet
EndChar

StartChar: uni066E
Encoding: 1646 1646 4
Width: 1000
VWidth: 0
Flags: HW
LayerCount: 2
Back
SplineSet
-34.5185546875 621.15625 m 0,0,1
780.833007812 300.048828125 m 1,25,-1
 780.833007812 105.099609375 l 2,26,27
 780.833007812 79.1865234375 753.752929688 52.9375 728.670898438 52.9375 c 2,28,-1
 337.190429688 52.9375 l 2,29,30
 273.879882812 52.9375 219.166992188 99.615234375 219.166992188 159.896484375 c 2,31,-1
 219.166992188 300.048828125 l 1
EndSplineSet
Fore
SplineSet
-35 621 m 1
728.5 300 m 1,1,-1
 833.5 300 l 1,2,-1
 833.5 105 l 0,3,4
 833.5 93.9001145778 831.459996442 83.5159377539 828.234236306 74.1626275682 c 0,5,6
 816.880660154 41.2421638698 791.361656518 16.5184921992 759.246549504 5.60898861941 c 0,7,8
 750.075006375 2.49341492526 739.927341491 0.5 729 0.5 c 0,9,-1
 337 0.5 l 0,10,11
 249.991998342 0.5 166.5 65.712420603 166.5 160 c 0,12,-1
 166.5 300 l 1,13,-1
 271.5 300 l 1,14,-1
 271.5 160 l 0,15,16
 271.5 134.287579397 298.008001658 105.5 337 105.5 c 0,17,-1
 726.18111942 105.5 l 1,18,19
 726.947076389 106.062817887 727.769945483 106.813726691 728.5 107.753844064 c 1,20,-1
 728.5 300 l 1,1,-1
EndSplineSet
EndChar

StartChar: uni0633
Encoding: 1587 1587 5
Width: 1000
VWidth: 0
Flags: HW
LayerCount: 2
Back
SplineSet
815.5 376 m 1
 920.5 376 l 1
 920.5 104 l 0
 920.5 80.2439023576 912.452669285 57.5437999613 898.364460034 39.6396648506 c 0
 878.563445074 14.4753561118 847.476170911 -0.5 814 -0.5 c 0
 732 -0.5 l 1
 732 104.5 l 1
 814 104.5 l 0
 814.702685169 104.5 815.102053817 104.556028741 815.5 104.638485323 c 1
 815.5 376 l 1
631.5 376 m 1
 736.5 376 l 1
 736.5 104 l 0
 736.5 77.5844767198 726.758328173 52.1818365616 709.225065194 33.1068603021 c 0
 689.670844677 11.8332221568 661.212183378 -0.5 631 -0.5 c 0
 549 -0.5 l 1
 549 104.5 l 1
 631 104.5 l 0
 631.199941066 104.5 631.219556461 104.499756649 631.5 104.512992847 c 1
 631.5 376 l 1
448.5 378 m 1
 553.5 378 l 1
 553.5 -97 l 0
 553.5 -123.41552328 543.758328173 -148.818163438 526.225065194 -167.893139698 c 0
 506.670844677 -189.166777843 478.212183378 -201.5 448 -201.5 c 0
 181 -201.5 l 0
 162.199186825 -201.5 144.794484377 -195.700018171 130.666227686 -186.893934827 c 0
 98.3900654773 -166.776337825 79.5 -131.167244932 79.5 -93 c 0
 79.5 185 l 1
 184.5 185 l 1
 184.5 -93 l 0
 184.5 -93.8476226955 184.750897181 -95.1491887948 185.444394005 -96.5 c 1
 448 -96.5 l 0
 448.199941066 -96.5 448.219556461 -96.5002433509 448.5 -96.487007153 c 1
 448.5 378 l 1
782.458984375 482.321289062 m 1
 782.458984375 482.321289062 l 1
590.173828125 482.7578125 m 1
 590.173828125 482.7578125 l 1
685.19921875 576.91015625 m 1
 685.19921875 576.91015625 l 1
867.620117188 375.772460938 m 1
 867.640625 103.701171875 l 2
 867.640625 74.458984375 845.276367188 51.9443359375 814.499023438 51.9443359375 c 2
 732.237304688 51.9443359375 l 1
684.341796875 375.62890625 m 1
 684.341796875 103.565429688 l 2
 684.341796875 74.3232421875 661.978515625 51.80859375 631.224609375 51.80859375 c 2
 548.9609375 51.80859375 l 1
501.24609375 377.69140625 m 1
 501.24609375 -96.8984375 l 2
 501.24609375 -126.155273438 478.881835938 -148.84375 448.120117188 -148.655273438 c 2
 181.083007812 -148.16015625 l 2
 153.732421875 -148.4375 132.359375 -120.717773438 132.359375 -92.083984375 c 2
 132.612304688 186.248046875 l 1
EndSplineSet
Fore
SplineSet
632 376 m 1
 737 376 l 1
 737 104 l 2
 737 44 688 0 631 0 c 2
 549 0 l 1
 549 105 l 1
 651 105 l 17
 652 105 632 84 632 84 c 1
 632 376 l 1
816 376 m 5
 921 376 l 5
 921 104 l 6
 921 44 872 0 815 0 c 6
 733 0 l 5
 733 105 l 5
 835 105 l 21
 836 105 816 84 816 84 c 5
 816 376 l 5
448 378 m 1
 553 378 l 1
 553 -97 l 2
 553 -156 506 -202 448 -202 c 2
 181 -202 l 2
 119 -202 79 -146 79 -93 c 2
 79 185 l 1
 184 185 l 1
 184 -116 l 17
 164 -97 l 1
 468 -97 l 1
 448 -116 l 9
 448 -116 l 1
 448 378 l 1
EndSplineSet
EndChar

StartChar: uni0635
Encoding: 1589 1589 6
Width: 1000
VWidth: 0
Flags: HW
LayerCount: 2
Back
SplineSet
473.875850743 104.5 m 1
 474.910719046 105.935193291 476.108588164 107.596987918 476.981574964 108.808636383 c 0
 568.233638989 235.460520908 684.995806963 429.854591962 852.297535769 367.837571801 c 1
 928.649815042 335.769614507 960.252843468 263.773566512 962.480898814 172.423297357 c 1
 964.473000914 105.687876986 l 1
 965.383079408 79.2956006656 955.865799284 53.6857980244 939.103479587 34.7473464691 c 0
 919.238626765 12.3035821438 889.997112917 -0.5 859 -0.5 c 0
 457 -0.5 l 1
 457 104.5 l 1
 473.875850743 104.5 l 1
603.452903595 104.5 m 1
 859 104.5 l 0
 859.171921852 104.5 859.273026063 104.502241487 859.461360373 104.511019884 c 1
 857.519101186 169.576702643 l 1
 855.766263676 241.443040559 838.829254292 259.053380734 813.714827702 270.15016371 c 1
 763.087690297 287.890698736 697.681309494 232.974967441 603.452903595 104.5 c 1
404.5 277 m 1
 509.5 277 l 1
 509.5 -87 l 0
 509.5 -113.454502517 499.61105151 -139.007826121 481.762930657 -157.928875271 c 0
 461.867063114 -179.020770086 433.609468636 -190.5 403.901685738 -190.5 c 1
 136.901685738 -189.5 l 1
 117.233795071 -189.5 98.5361670277 -183.12656459 83.7318300524 -173.290254114 c 0
 52.4137575345 -152.481873077 35.5 -117.34762971 35.5 -81 c 0
 35.5 198 l 1
 140.5 198 l 1
 140.5 -81 l 0
 140.5 -82.0866824515 140.730130365 -83.2954805999 141.246225577 -84.5155352484 c 1
 404.098314262 -85.5 l 1
 404.098314262 -85.5 404.137887644 -85.5015149528 404.5 -85.4906372839 c 1
 404.5 277 l 1
513.178710938 69.1083984375 m 0
 617.337890625 212.692382812 717.419921875 362.061523438 833.349609375 319.162109375 c 1
 882.998046875 298.56640625 907.951171875 253.108398438 909.5546875 171.109375 c 1
 912.368164062 103.918945312 l 2
 913.586914062 74.7001953125 890.00390625 52.1630859375 859.227539062 52.1630859375 c 2
 457.365234375 52.1630859375 l 1
457.342773438 276.90234375 m 1
 457.342773438 -86.58203125 l 2
 457.342773438 -115.838867188 434.971679688 -138.526367188 404.216796875 -138.338867188 c 2
 137.171875 -136.735351562 l 2
 108.7109375 -136.735351562 88.4482421875 -110.041992188 88.4482421875 -80.65234375 c 2
 87.5859375 197.6875 l 1
548.530273438 386.97265625 m 1
 548.530273438 386.97265625 548.540039062 386.97265625 548.530273438 386.97265625 c 1
EndSplineSet
Fore
SplineSet
404 277 m 1
 509 277 l 1
 509 -97 l 2
 509 -156 462 -202 404 -202 c 2
 137 -202 l 2
 75 -202 35 -146 35 -93 c 2
 35 185 l 1
 140 185 l 1
 140 -116 l 17
 120 -97 l 1
 424 -97 l 1
 404 -116 l 9
 404 -116 l 1
 404 277 l 1
465.5 93.5 m 1
 558.207433592 222.065969226 679.98722107 431.71122294 852.297535769 367.837571801 c 0
 928.649815042 335.769614507 960.252843468 263.773566512 962.480898814 172.423297357 c 0
 964.473000914 105.687876986 l 2
 966.550311073 45.4458823949 916.700369353 -0.5 859 -0.5 c 2
 457 -0.5 l 1
 457 104.5 l 1
 880 104.5 l 1
 880.1796875 104.5 858.459960938 84.5 858.459960938 84.5 c 1
 857.519101186 169.576702643 l 2
 856.724609375 241.459960938 838.829254292 259.053380734 813.714827702 270.15016371 c 0
 763.087690297 287.890698736 689 237 562 44 c 1
 465.5 93.5 l 1
EndSplineSet
EndChar

StartChar: uni0637
Encoding: 1591 1591 7
Width: 1000
VWidth: 0
Flags: HW
LayerCount: 2
Back
SplineSet
360.071289062 69.6875 m 0
 464.223632812 213.263671875 564.313476562 362.633789062 680.234375 319.734375 c 1
 729.891601562 299.137695312 754.836914062 253.6796875 756.440429688 171.680664062 c 1
 759.25390625 104.491210938 l 2
 760.473632812 75.271484375 736.897460938 52.734375 706.12109375 52.734375 c 2
 240.701171875 52.734375 l 1
373.306640625 660.705078125 m 1
 373.306640625 87.8330078125 l 1
EndSplineSet
Fore
SplineSet
311.5 93.5 m 1
 404.20703125 222.06640625 525.987304688 431.7109375 698.297851562 367.837890625 c 0
 774.649414062 335.76953125 806.252929688 263.7734375 808.48046875 172.422851562 c 0
 810.47265625 105.6875 l 2
 812.55078125 45.4462890625 762.700195312 -0.5 705 -0.5 c 2
 241 -0.5 l 1
 241 104.5 l 1
 726 104.5 l 1
 726.1796875 104.5 704.459960938 84.5 704.459960938 84.5 c 1
 703.51953125 169.577148438 l 2
 702.724609375 241.459960938 684.829101562 259.053710938 659.71484375 270.150390625 c 0
 609.087890625 287.890625 535 237 408 44 c 1
 311.5 93.5 l 1
320.5 661 m 1
 425.5 661 l 1
 425.5 88 l 1
 320.5 88 l 1
 320.5 661 l 1
EndSplineSet
EndChar

StartChar: uni0639
Encoding: 1593 1593 8
Width: 1000
VWidth: 0
Flags: HW
LayerCount: 2
Back
SplineSet
665.436523438 -220.208007812 m 1
 376.9609375 -220.087890625 l 2
 353.31640625 -220.379882812 334.817382812 -200.16796875 334.66796875 -173.01171875 c 2
 334.529296875 4.0048828125 l 1
 335.72265625 30.39453125 348.650390625 52.412109375 379.270507812 52.47265625 c 2
 665.470703125 52.787109375 l 1
626.236328125 254.87109375 m 0
 609.493164062 262.072265625 593.373046875 267.813476562 578.032226562 272.177734375 c 0
 421.990234375 316.409179688 345.706054688 216.967773438 496.974609375 53.337890625 c 0
EndSplineSet
Fore
SplineSet
665 -168 m 1
 665 -273 l 1
 377 -273 l 2
 322 -273 283 -226 283 -173 c 2
 283 5 l 2
 283 58 322 105 379 105 c 2
 665 105 l 1
 665 0 l 1
 368 0 l 1
 388 20 l 1
 388 -188 l 1
 368 -168 l 1
 665 -168 l 1
646 304 m 1
 606 206 l 1
 590 213 576 218 564 221 c 0
 507 237 478 226 472 221 c 0
 471 220 448 185 536 89 c 1
 458 17 l 1
 368 114 324 228 401 298 c 0
 449 342 520 343 592 323 c 0
 610 318 628 311 646 304 c 1
EndSplineSet
EndChar

StartChar: uni0644
Encoding: 1604 1604 9
Width: 1000
VWidth: 0
Flags: HW
LayerCount: 2
Back
SplineSet
631.5 696 m 1
 736.5 696 l 1
 736.5 -42 l 0
 736.5 -73.9917502146 722.395156725 -106.139709477 694.624916916 -127.215449341 c 4
 676.960508759 -140.621544273 654.135522627 -148.5 630 -148.5 c 0
 371 -148.5 l 0
 341.217877553 -148.5 311.028357441 -137.668288311 289.994337781 -114.45998766 c 0
 272.165916272 -94.7886469854 263.5 -68.8252441465 263.5 -43 c 0
 263.5 146 l 1
 368.5 146 l 1
 368.5 -43 l 0
 368.5 -44 368.489503004 -42.3570394772 368.503312694 -43.3569441189 c 1
 368.924267817 -43.4072857836 369.992790424 -43.5 371 -43.5 c 0
 630 -43.5 l 0
 630.543284621 -43.5 630.782799705 -43.4784298184 631.159632414 -43.4281259963 c 1
 631.334757812 -43.0613178894 631.5 -42.356286712 631.5 -42 c 0
 631.5 696 l 1
683.662109375 695.625976562 m 1
 683.662109375 -41.7490234375 l 2
 683.662109375 -68.6650390625 664.141601562 -96.23828125 629.978515625 -96.23828125 c 2
 370.5078125 -96.7236328125 l 2
 337.94140625 -96.7236328125 316.479492188 -76.541015625 316.479492188 -44.404296875 c 2
 316.337890625 144.840820312 l 1
EndSplineSet
Fore
SplineSet
631.5 696 m 1
 736.5 696 l 1
 736.5 -42 l 2
 736.5 -97.018146365 692.259033464 -148.5 630 -148.5 c 2
 371 -148.5 l 2
 312.701913068 -148.5 263.5 -103.905609306 263.5 -43 c 2
 263.5 146 l 1
 368.5 146 l 1
 368.5 -64 l 17
 348 -43.5 l 9
 652 -43.5 l 17
 652.000117874 -43.5 631.5 -64.0000244141 631.5 -64 c 9
 631.5 696 l 1
EndSplineSet
EndChar

StartChar: uni0643
Encoding: 1603 1603 10
Width: 1000
VWidth: 0
Flags: HW
LayerCount: 2
Back
SplineSet
549.452148438 464.748046875 m 1
 549.452148438 394.748046875 l 1
 485.811971044 394.748046875 l 1
 506.76329442 350.322848017 l 1
 507.094583489 349.519226841 l 0
 507.857466521 347.668670885 512.747005496 343.138295112 513.957369098 327.163057871 c 0
 516.664093767 291.437785995 476.488875334 283.491074509 467.083006942 283.723632812 c 1
 356.866210938 283.723632812 l 1
 356.866210938 353.723632812 l 1
 427.765437703 353.723632812 l 1
 407.093497506 397.556427409 l 1
 407.093497506 397.556427409 380.039383366 443.220021299 426.68584574 461.057377198 c 0
 435.432360098 464.401997166 442.471398466 464.729124993 449.572379941 464.747924222 c 0
 549.452148438 464.748046875 l 1
635 658 m 1
 740 658 l 1
 740 104 l 2
 740 44 691 0 634 0 c 2
 312 0 l 1
 312 105 l 1
 654 105 l 17
 655 105 635 84 635 84 c 1
 635 658 l 1
327 105 m 1
 414 0 l 1
 312 0 l 1
 225 105 l 1
 327 105 l 1
635 658 m 1
 740 658 l 1
 740 104 l 2
 740 44 691 0 634 0 c 2
 312 0 l 1
 312 105 l 1
 654 105 l 17
 655 105 635 84 635 84 c 1
 635 658 l 1
327 105 m 1
 414 0 l 1
 312 0 l 1
 225 105 l 1
 327 105 l 1
549 482 m 1
 549 378 l 1
 513 378 l 1
 523 358 l 1
 524 356 531 352 532 327 c 0
 532.549691045 312.708032838 528.642518482 301.664288306 522.5 293.162863586 c 0
 506.293533389 270.732641148 474.526390299 266 468 266 c 0
 357 266 l 1
 357 372 l 1
 400 371 l 1
 391 390 l 1
 391 390 370.235310332 425.184613049 388.720263945 453.5 c 0
 394.5745436 462.467628333 404.365646469 470.746258588 420 477 c 0
 432 482 442 482 450 482 c 0
 549 482 l 1
688.07421875 659.198242188 m 1
 688.07421875 107.220703125 l 2
 688.07421875 80.3056640625 668.552734375 52.732421875 634.389648438 52.732421875 c 2
 311.92578125 52.732421875 l 1
549.452148438 429.748046875 m 5
 449.665039062 429.748046875 l 6
 429.376953125 429.694335938 434.84765625 421.075195312 438.853515625 412.265625 c 6
 474.736328125 336.1796875 l 6
 478.62890625 326.737304688 484.815429688 318.295898438 467.515625 318.723632812 c 6
 356.866210938 318.723632812 l 5
EndSplineSet
Fore
SplineSet
549.452148438 464.748046875 m 1
 549.452148438 394.748046875 l 1
 485.811971044 394.748046875 l 1
 506.76329442 350.322848017 l 2
 511.672249289 338.41499939 522.5 320 509 301.5 c 0
 496.815658637 284.802939614 476.162970601 283.723632812 467.083006942 283.723632812 c 2
 356.866210938 283.723632812 l 1
 356.866210938 353.723632812 l 1
 427.765437703 353.723632812 l 1
 407.093497506 397.556427409 l 2
 407.093497506 397.556427409 391.427360439 423.998694827 404.492551962 444.5 c 0
 411.400902516 455.340269942 426.268686705 464.747895605 449.572379941 464.747924222 c 2
 549.452148438 464.748046875 l 1
635 658 m 1
 740 658 l 1
 740 104 l 2
 740 44 691 0 634 0 c 2
 312 0 l 1
 312 105 l 1
 654 105 l 17
 655 105 635 84 635 84 c 1
 635 658 l 1
327 105 m 1
 414 0 l 1
 312 0 l 1
 225 105 l 1
 327 105 l 1
EndSplineSet
EndChar

StartChar: uni0645
Encoding: 1605 1605 11
Width: 1000
VWidth: 0
Flags: HW
LayerCount: 2
Back
SplineSet
449.607450396 18.8151477584 m 1
 431.09416706 6.42801388673 408.435413621 0.5 385 0.5 c 0
 291 0.5 l 1
 291 105.5 l 1
 385 105.5 l 0
 387.477842851 105.5 389.372593169 105.768579005 390.149144692 105.913176358 c 1
 390.295150095 106.544624275 390.435451504 107.516655887 390.5 108.316551313 c 1
 390.5 237.747601988 l 1
 390.078673158 281.56559358 407.108016742 321.170466744 434.997291952 348.146454338 c 0
 499.309177507 410.352324294 608.72944827 406.463035384 675.007071622 337.217757255 c 1
 731.510150003 277.660458421 762.126824449 219.961923864 762.3885737 162.521927184 c 0
 762.917148504 46.5279562718 646.834546766 0.5 555 0.5 c 0
 490 0.5 l 1
 490 72.8113207547 l 0
 490 73.8113207547 449.607450396 18.8151477584 449.607450396 18.8151477584 c 1
495.5 105.5 m 1
 555 105.5 l 0
 628.549781593 105.5 657.501597319 137.480035486 657.389663871 162.043455952 c 0
 657.308218155 179.916445484 645.758506713 215.48879531 598.992928378 264.782242745 c 1
 571.242142639 293.77560098 526.56251348 290.63187315 507.997487823 272.674794738 c 0
 500.655687416 265.573415617 495.324735933 256.479860965 495.5 238.252398012 c 1
 495.5 105.5 l 1
290.69921875 52.8154296875 m 1
 385.392578125 52.8154296875 l 1
 426.880859375 60.54296875 442.112304688 80.9521484375 443.01953125 107.125 c 2
 443.01953125 238.025390625 l 2
 442.360351562 341.580078125 570.024414062 371.125976562 636.584960938 300.690429688 c 0
 784.111328125 144.573242188 681.637695312 52.6962890625 555.124023438 52.6962890625 c 2
 489.834960938 52.9072265625 l 1
EndSplineSet
Fore
SplineSet
390 84 m 1
 390 84 410 105 409 105 c 9
 290 105 l 1
 290 0 l 1
 389 0 l 2
 446 0 495 44 495 104 c 2
 495 238 l 2
 495 256 501 266 508 273 c 0
 527 291 571 294 599 265 c 0
 646 216 657 180 657 162 c 0
 657 137 629 106 555 106 c 0
 490 106 l 1
 490 0 l 1
 555 0 l 0
 647 0 763 47 762 163 c 0
 762 220 732 277 675 337 c 0
 609 406 499 410 435 348 c 0
 407 321 390 282 390 238 c 2
 390 238 390 135.333333333 390 84 c 1
EndSplineSet
EndChar

StartChar: uni0647
Encoding: 1607 1607 12
Width: 1000
VWidth: 0
Flags: HW
LayerCount: 2
Back
SplineSet
629.4 364 m 1
 691.5 364 l 1
 691.5 105 l 0
 691.5 92.5124978403 689.181405559 80.4646044117 685.096419482 69.443384346 c 0
 674.334181632 40.4070572957 651.592424251 17.6656262049 622.556615654 6.90358051817 c 0
 611.535395588 2.8185944405 599.48750216 0.5 587 0.5 c 0
 447 0.5 l 0
 409.979714046 0.5 376.085864927 13.9596954163 351.157395075 36.5385925685 c 0
 301.500094234 81.5155644893 291.366783658 162.357311993 345.214783699 221.383004345 c 0
 346.554339206 222.851363267 l 1
 348.00108156 224.214236498 l 0
 421.975716676 293.90048697 466.563177635 319.251626325 506.538461538 415.192307692 c 1
 629.4 364 l 1
586.5 338.018687061 m 1
 538.76734519 244.777935532 478.884916017 202.945573018 421.673925864 149.360314453 c 1
 408.356818596 133.720487643 412.006368852 122.475843012 422.422731908 113.682018751 c 0
 427.833850786 109.11378047 435.795587593 105.5 447 105.5 c 0
 586.243303231 105.5 l 1
 586.328489534 105.573819981 586.3889071 105.628498505 586.5 105.756696769 c 1
 586.5 338.018687061 l 1
638.78125 363.875976562 m 1
 638.78125 105.115234375 l 2
 638.78125 77.28515625 615.405273438 52.8740234375 586.977539062 52.8740234375 c 2
 446.658203125 52.8740234375 l 2
 374.659179688 52.8740234375 332.454101562 128.799804688 384.103515625 185.91015625 c 1
 452.823242188 250.702148438 509.328125 286.524414062 554.538085938 394.806640625 c 0
EndSplineSet
Fore
SplineSet
606.5 373.5 m 1
 506.538461538 415.192307692 l 1
 466.563177635 319.251626325 421.975716676 293.90048697 348.00108156 224.214236498 c 0
 289.613911649 169.211830061 302.068899991 81.0003701456 351.157395075 36.5385925685 c 0
 376.085864927 13.9596954163 409.979714046 0.5 447 0.5 c 2
 587 0.5 l 2
 646.433037821 0.5 691.5 45.351134792 691.5 105 c 2
 691.5 364 l 1
 586.5 364.174804688 l 1
 586.5 85.7568359375 l 1
 607.243164062 105.5 l 1
 447 105.5 l 2
 435.795898438 105.5 427.833850786 109.11378047 422.422731908 113.682018751 c 0
 412.006368852 122.475843012 408.356818596 133.720487643 421.673925864 149.360314453 c 0
 478.884916017 202.945573018 540.319458008 242.480773926 606.5 373.5 c 1
EndSplineSet
EndChar

StartChar: uni0648
Encoding: 1608 1608 13
Width: 1000
VWidth: 0
Flags: HW
LayerCount: 2
Back
SplineSet
548.5 -0.5 m 1
 441 -0.5 l 0
 350.99649351 -0.5 279.690296471 73.1449705206 284.634067515 158.83700194 c 1
 296.841302508 296.168395616 410.753442526 375.656671766 509.088263553 376.41867821 c 0
 581.691658639 376.981289239 652.894502618 326.417049522 653.5 233.170452749 c 1
 653.5 -1 l 0
 653.5 -98.6781654107 580.00056632 -199.5 463 -199.5 c 6
 270 -199.5 l 1
 270 -94.5 l 1
 463 -94.5 l 6
 511.99943368 -94.5 548.5 -50.9685657521 548.5 -0.5 c 1
548.5 104.5 m 1
 548.5 232.829547251 l 1
 548.290440099 265.101772081 536.967066694 271.631561364 509.901894713 271.421830617 c 0
 463.551657324 271.062657954 396.929727659 228.553586991 389.380102304 151.293792954 c 1
 388.83401348 131.65999576 409.263168018 104.5 441 104.5 c 0
 548.5 104.5 l 1
729.676757812 52.431640625 m 1
 441.39453125 52.431640625 l 2
 380.485351562 53.4951171875 334.228515625 103.455078125 337.3125 155.423828125 c 1
 352.953125 335.272460938 600.447265625 387.680664062 601.015625 233.346679688 c 2
 601.015625 -0.734375 l 2
 601.015625 -74.7265625 545.721679688 -147.471679688 462.784179688 -147.471679688 c 2
 270.323242188 -147.471679688 l 1
EndSplineSet
Fore
SplineSet
597.073242188 -0.5 m 1
 441 -0.5 l 2
 350.99649351 -0.5 279.690296471 73.1449705206 284.634067515 158.83700194 c 0
 296.841302508 296.168395616 410.753442526 375.656671766 509.088263553 376.41867821 c 0
 581.691658639 376.981289239 652.894502618 326.417049522 653.5 233.170452749 c 2
 653.5 -1 l 2
 653.5 -98.6781654107 580.00056632 -199.5 463 -199.5 c 2
 270 -199.5 l 1
 270 -94.5 l 1
 463 -94.5 l 2
 511.99943368 -94.5 548.5 -50.9685657521 548.5 -0.5 c 2
 548.5 104.5 l 1
 548.5 212.829101562 l 2
 548.290039062 245.1015625 536.967066694 271.631561364 509.901894713 271.421830617 c 0
 463.551657324 271.062657954 396.929727659 228.553586991 389.380102304 151.293792954 c 0
 388.83401348 131.65999576 409.263168018 104.5 441 104.5 c 2
 597.1953125 104.5 l 1
 597.073242188 -0.5 l 1
EndSplineSet
EndChar

StartChar: uni0649
Encoding: 1609 1609 14
Width: 1000
VWidth: 0
Flags: HW
LayerCount: 2
Back
SplineSet
739 105.5 m 1
 739 0.5 l 1
 611.04963329 0.5 l 1
 715.619151879 -125.737076495 l 1
 728.931860061 -142.182186602 735.044531063 -161.192753324 735.160729636 -180.624662548 c 4
 735.220371619 -190.598602603 733.612456475 -200.708982436 730.196466464 -210.503915308 c 0
 716.605423805 -249.474565122 676.797617296 -273.5 632 -273.5 c 2
 402 -273.5 l 2
 324.043018583 -273.5 208.5 -226.965838492 208.5 -96 c 2
 208.5 100 l 1
 313.5 100 l 1
 313.5 -96 l 2
 313.5 -147.034161508 351.956981417 -168.5 402 -168.5 c 2
 614.696635367 -168.5 l 1
 523.536227785 -58.4504989549 l 1
 497.584223245 -26.9935237548 486.873862367 16.9492584535 507.309437755 54.4156118758 c 0
 513.136772061 65.0993808657 520.997908038 74.2743857518 529.968236939 81.6129776229 c 0
 550.215823684 98.1774511386 575.52487656 105.5 601 105.5 c 0
 739 105.5 l 1
739.353515625 52.8046875 m 1
 600.854492188 52.9072265625 l 2
 556.342773438 53.083984375 531.909179688 16.6259765625 564.016601562 -24.9404296875 c 1
 674.627929688 -158.556640625 l 1
 693.836914062 -177.765625 682.213867188 -221.112304688 632.034179688 -221.112304688 c 2
 401.974609375 -221.112304688 l 2
 337.9140625 -221.112304688 260.646484375 -187.080078125 260.646484375 -95.6669921875 c 2
 260.646484375 100.263671875 l 1
EndSplineSet
Fore
SplineSet
739 105.5 m 1
 739 0.5 l 1
 590.833007812 0.5 l 1
 600.5 13.5 l 1
 715.619151879 -125.737076495 l 2
 771.397460938 -193.201171875 705.664674509 -273.5 632 -273.5 c 2
 402 -273.5 l 2
 324.043018583 -273.5 208.5 -226.965838492 208.5 -96 c 2
 208.5 100 l 1
 313.5 100 l 1
 313.5 -96 l 2
 313.5 -147.034161508 354.95703125 -168.5 412 -168.5 c 2
 635.125 -168.5 l 1
 626.125 -182.125 l 1
 523.536227785 -58.4504989549 l 2
 464.469726562 12.7568359375 509.162589697 105.5 601 105.5 c 2
 739 105.5 l 1
EndSplineSet
EndChar

StartChar: uni0661
Encoding: 1633 1633 15
Width: 1000
VWidth: 0
Flags: HW
LayerCount: 2
Back
SplineSet
500 659.485351562 m 1
 500 0.2412109375 l 1
EndSplineSet
Fore
SplineSet
447.5 659 m 1
 552.5 659 l 1
 552.5 0 l 1
 447.5 0 l 1
 447.5 659 l 1
EndSplineSet
EndChar

StartChar: uni0662
Encoding: 1634 1634 16
Width: 1000
VWidth: 0
Flags: HW
LayerCount: 2
Back
SplineSet
612.912109375 604.810546875 m 1
 438.859375 603.577148438 l 2
 409.587890625 603.374023438 387.087890625 581.212890625 387.087890625 550.451171875 c 2
 387.087890625 -0.46484375 l 1
EndSplineSet
Fore
SplineSet
440 0 m 1
 335 0 l 1
 335 553 l 2
 335 613 384 657 441 657 c 2
 613 657 l 1
 613 552 l 1
 421 552 l 17
 420 552 440 573 440 573 c 1
 440 0 l 1
EndSplineSet
EndChar

StartChar: uni0663
Encoding: 1635 1635 17
Width: 1000
VWidth: 0
Flags: HW
LayerCount: 2
Back
SplineSet
683.720703125 659.637695312 m 1
 683.720703125 477.060546875 l 2
 683.720703125 447.818359375 661.372070312 425.311523438 630.594726562 425.303710938 c 2
 548.34765625 425.303710938 l 1
500.489257812 659.501953125 m 1
 500.489257812 476.91796875 l 2
 500.489257812 447.67578125 478.139648438 425.17578125 447.36328125 425.17578125 c 2
 365.040039062 425.162109375 l 1
316.279296875 659.833984375 m 1
 316.279296875 0.212890625 l 1
EndSplineSet
Fore
SplineSet
447 660 m 1
 552 660 l 1
 552 477 l 2
 552 417 503 373 446 373 c 2
 365 373 l 1
 365 478 l 1
 466 478 l 17
 467 478 447 457 447 457 c 1
 447 660 l 1
631 660 m 1
 736 660 l 1
 736 477 l 2
 736 417 687 373 630 373 c 2
 548 373 l 1
 548 478 l 1
 650 478 l 17
 651 478 631 457 631 457 c 1
 631 660 l 1
263.5 660 m 1
 368.5 660 l 1
 368.5 0 l 1
 263.5 0 l 1
 263.5 660 l 1
EndSplineSet
EndChar

StartChar: uni0664
Encoding: 1636 1636 18
Width: 1000
VWidth: 0
Flags: HW
LayerCount: 2
Back
SplineSet
545.6796875 607.766601562 m 1
 389.086914062 492.010742188 l 1
 362.237304688 468.737304688 337.690429688 456.63671875 381.3359375 423.721679688 c 1
 509.259765625 335.650390625 l 1
 375.08984375 142.567382812 l 2
 354.7734375 114.236328125 317.661132812 52.73828125 372.547851562 52.9990234375 c 2
 656.146484375 52.396484375 l 1
EndSplineSet
Fore
SplineSet
514.802031901 650.224836134 m 1
 577.197968099 565.775163866 l 1
 427.900535353 455.466232666 l 1
 582.204569055 349.382209496 l 1
 417.924834151 112.770352507 l 1
 415.973168297 110.038020311 414.375884152 107.705742306 412.814290093 105.359641222 c 1
 656.185511209 104.499672243 l 1
 655.814488791 -0.499672242703 l 1
 372.907244106 0.5 l 1
 332.434053001 0.5 291.617327765 32.2455734424 291.663381815 75.5036627598 c 0
 291.712551503 121.688239421 318.20272423 153.717616431 332.079430797 173.235790291 c 1
 435.795430945 322.617790504 l 1
 351.257236798 380.73779898 l 0
 318.825678851 403.079538899 285.642362407 452.9203003 317.62105619 497.942477606 c 0
 331.853020091 517.979381132 345.858545835 525.586372897 358.000412904 534.371410632 c 1
 514.802031901 650.224836134 l 1
EndSplineSet
EndChar

StartChar: uni0665
Encoding: 1637 1637 19
Width: 1000
VWidth: 0
Flags: HW
LayerCount: 2
Back
SplineSet
556.603515625 567.333984375 m 0
 682.04296875 490.165039062 790.403320312 41.8525390625 500.768554688 40.046875 c 0
 211.208007812 38.248046875 316.934570312 483.897460938 438.612304688 564.353515625 c 0
 476.538085938 589.44921875 519.053710938 590.419921875 556.603515625 567.333984375 c 0
EndSplineSet
Fore
SplineSet
584.360270667 611.807451781 m 0
 677.216352941 554.6081051 736.650617174 395.193436701 737.733861487 256.330638245 c 0
 738.729316928 128.721633787 676.262934744 -11.292538604 501.362060355 -12.4987515309 c 0
 413.227895361 -13.1065733584 345.492846532 23.7110413488 306.646583343 82.8876735866 c 0
 201.909447003 242.43946802 291.968149893 530.366363982 410.178180215 607.881137965 c 1
 463.62558521 643.043904408 529.606023258 644.948180476 584.360270667 611.807451781 c 0
529.593266423 522.220982366 m 0
 508.574483443 534.726852482 490.433480028 534.994954301 467.854866328 520.140603182 c 0
 403.910641771 478.209964129 329.725318729 239.067231787 394.423721713 140.508624461 c 0
 413.180365549 111.935605508 441.617818925 92.0917162156 500.637939645 92.4987515309 c 0
 600.230808146 93.1855988998 633.522264336 154.85449536 632.737056116 255.511576599 c 0
 631.840555515 370.43540393 569.032408395 497.653214398 529.593266423 522.220982366 c 0
EndSplineSet
EndChar

StartChar: uni0666
Encoding: 1638 1638 20
Width: 1000
VWidth: 0
Flags: HW
LayerCount: 2
Back
SplineSet
340.020507812 604.7734375 m 1
 608.283203125 603.546875 l 2
 637.479492188 603.418945312 659.979492188 581.174804688 659.979492188 550.420898438 c 2
 659.979492188 -0.501953125 l 1
EndSplineSet
Fore
SplineSet
340 551.5 m 1
 340 656.5 l 1
 608 656.5 l 0
 631.756097642 656.5 654.456200039 648.452669285 672.360335149 634.364460034 c 0
 697.524643888 614.563445074 712.5 583.476170911 712.5 550 c 0
 712.5 -1 l 1
 607.5 -1 l 1
 607.5 550 l 0
 607.5 550.702685169 607.443971259 551.102053817 607.361514677 551.5 c 1
 340 551.5 l 1
EndSplineSet
EndChar

StartChar: uni0667
Encoding: 1639 1639 21
Width: 1000
VWidth: 0
Flags: HW
LayerCount: 2
Back
SplineSet
694.293945312 637.767578125 m 1
 541.913085938 57.0615234375 l 1
 534.764648438 39.4755859375 502.2578125 38.572265625 492.249023438 56.8349609375 c 1
 305.706054688 637.767578125 l 1
EndSplineSet
Fore
SplineSet
643.209389129 651.287732965 m 1
 744.790610871 624.712267035 l 1
 592.025667257 40.7883707203 l 1
 590.930245256 37.9715712894 l 0
 584.552750428 21.5722988757 572.549730404 9.49427037905 560.489194565 2.32151819962 c 0
 545.594819057 -6.53660102607 530.329392675 -9.30992939014 516.054421304 -8.97575958582 c 0
 492.982095741 -8.43564820356 462.943144898 1.19822270352 446.106743004 31.5037461131 c 0
 443.583724169 36.0451800153 l 1
 255.999731129 621.993029243 l 1
 356.000268871 654.006970757 l 1
 514.441739304 159.09033462 l 1
 643.209389129 651.287732965 l 1
EndSplineSet
EndChar

StartChar: uni0668
Encoding: 1640 1640 22
Width: 1000
VWidth: 0
Flags: HW
LayerCount: 2
Back
SplineSet
305.717773438 6.8583984375 m 1
 458.150390625 587.557617188 l 1
 465.297851562 605.151367188 497.806640625 606.046875 507.814453125 587.783203125 c 1
 694.282226562 6.8583984375 l 1
EndSplineSet
Fore
SplineSet
356.790610871 -6.28773296456 m 1
 255.209389129 20.2877329646 l 1
 407.974332743 604.21162928 l 1
 409.069754744 607.028428711 l 0
 415.447249572 623.427701124 427.450269596 635.505729621 439.510805435 642.6784818 c 0
 454.405180943 651.536601026 469.670607325 654.30992939 483.945578696 653.975759586 c 0
 507.017904259 653.435648204 537.056855102 643.801777296 553.893256996 613.496253887 c 0
 556.416275831 608.954819985 l 1
 744.000268871 23.0069707573 l 1
 643.999731129 -9.00697075733 l 1
 485.558260696 485.90966538 l 1
 356.790610871 -6.28773296456 l 1
EndSplineSet
EndChar

StartChar: uni0669
Encoding: 1641 1641 23
Width: 1000
VWidth: 0
Flags: HW
LayerCount: 2
Back
SplineSet
639.801757812 0.2734375 m 1
 640.02734375 483.705078125 l 1
 620.583007812 616.391601562 488.96484375 627.227539062 425.46875 583.651367188 c 1
 371.162109375 554.57421875 334.41796875 469.663085938 381.794921875 392.984375 c 1
 435.997070312 314.973632812 501.1328125 341.76953125 600.047851562 334.7109375 c 0
EndSplineSet
Fore
SplineSet
587.5 283.162108299 m 1
 513.380321004 286.823385303 410.281613352 259.915682292 338.834909939 363.116476111 c 0
 337.975211579 364.358262632 l 1
 337.188324148 365.647418636 l 0
 274.656866055 468.092573384 318.701915845 584.177289373 397.471332381 628.772615335 c 1
 468.932319472 675.747609722 601.318927125 673.118070712 664.191964632 576.405871237 c 0
 682.412172257 548.379289029 692.5 513.599582407 692.5 475 c 0
 692.5 0 l 1
 587.5 0 l 1
 587.5 283.162108299 l 1
587.5 388.270531817 m 1
 587.5 475 l 0
 587.5 496.861373241 582.180420449 510.523005575 575.193006986 520.61618529 c 0
 551.138912414 555.361846276 481.399376829 559.353376115 455.060903463 540.95825186 c 0
 452.543897014 539.200342594 l 1
 449.839148493 537.747792462 l 0
 422.13069339 522.867325833 396.855458081 471.651311341 426.034196403 421.642318633 c 1
 457.795549157 376.872763241 479.341276722 392.677066504 587.5 388.270531817 c 1
EndSplineSet
EndChar

StartChar: uni06BA
Encoding: 1722 1722 24
Width: 1000
VWidth: 0
Flags: HW
LayerCount: 2
Back
SplineSet
681.9375 187.759765625 m 1
 681.9375 -83.4443359375 l 2
 682.262695312 -109.30078125 659.373046875 -135.450195312 630.64453125 -135.450195312 c 2
 492.05078125 -135.450195312 l 2
 411.485351562 -135.450195312 318.059570312 -72.88671875 318.059570312 -3.064453125 c 2
 318.059570312 187.169921875 l 1
EndSplineSet
Fore
SplineSet
629.5 188 m 1
 734.5 188 l 1
 734.5 -83 l 0
 734.5 -90.8605324436 733.562892567 -98.5078266797 731.863419071 -105.825310535 c 0
 725.149901604 -134.73194297 706.737251 -159.99196707 679.708032815 -174.905973693 c 0
 665.583056666 -182.699761379 648.800688706 -187.5 631 -187.5 c 0
 492 -187.5 l 0
 394.658820883 -187.5 265.5 -118.169761298 265.5 -3 c 0
 265.5 187 l 1
 370.5 187 l 1
 370.5 -3 l 0
 370.5 -27.8302387025 427.341179117 -82.5 492 -82.5 c 0
 629.340452845 -82.5 l 1
 629.385498863 -82.4312413021 629.456203507 -82.3160296583 629.5 -82.2331834478 c 1
 629.5 188 l 1
EndSplineSet
EndChar

StartChar: uni06A1
Encoding: 1697 1697 25
Width: 1000
VWidth: 0
Flags: HW
LayerCount: 2
Back
SplineSet
66.0068359375 98.5361328125 m 1
 66.0068359375 -52.6123046875 l 2
 66.0068359375 -110.30859375 108.076171875 -147.155273438 165.232421875 -147.155273438 c 2
 656.993164062 -147.079101562 l 2
 690.500976562 -146.733398438 711.819335938 -120.192382812 711.68359375 -93.080078125 c 2
 711.90234375 191.303710938 l 2
 711.90234375 318.920898438 569.202148438 344.174804688 497.524414062 297.708984375 c 0
 448.087890625 265.663085938 413.65234375 182.939453125 453.68359375 117.01953125 c 0
 501.022460938 39.0703125 570.610351562 53.3173828125 671.922851562 52.9638671875 c 2
 933.993164062 52.0478515625 l 1
EndSplineSet
Fore
SplineSet
659.5 0.431796911471 m 1
 575.955073261 -0.470288779276 471.695218684 -14.0890923975 409.067267919 89.846655681 c 1
 351.058304266 185.561445707 400.163077314 296.810248992 469.513360714 342.100229988 c 1
 546.286245835 391.14957326 676.898030796 385.708460053 737.53766351 289.682070184 c 0
 754.950380034 262.108019505 764.5 228.265095452 764.5 191 c 0
 764.5 -93 l 0
 764.5 -127.993091871 747.241611928 -162.234918134 715.808301475 -182.501619183 c 0
 699.064117186 -193.297471494 678.539222912 -199.5 657 -199.5 c 0
 165 -199.5 l 0
 84.1166039231 -199.5 13.5 -141.760341099 13.5 -53 c 0
 13.5 99 l 1
 118.5 99 l 1
 118.5 -53 l 0
 118.5 -80.2396589009 131.883396077 -94.5 165 -94.5 c 0
 657 -94.5 l 0
 658.746346241 -94.5 658.910634657 -94.253655424 658.910634657 -94.253655424 c 1
 658.983802891 -94.1934762877 659.483124815 -93.2622663821 659.5 -92.9948459369 c 1
 659.5 0.431796911471 l 1
659.5 105.437043279 m 1
 659.5 191 l 0
 659.5 210.619424019 655.013670514 223.556319357 648.982651853 233.259495399 c 0
 627.629524676 267.614081862 561.888959625 276.213382339 526.49024375 253.901471823 c 1
 497.304859487 234.53101806 477.051213004 180.257850797 498.932732081 144.153344319 c 1
 526.109368896 99.0516917335 554.286853565 104.379978952 659.5 105.437043279 c 1
EndSplineSet
EndChar

StartChar: uni06D2
Encoding: 1746 1746 26
Width: 1000
VWidth: 0
Flags: HW
LayerCount: 2
Back
SplineSet
896.846679688 -144.895507812 m 1
 271.095703125 -144.77734375 l 1
 55.3857421875 -137.637695312 67.7802734375 50.75 193.936523438 83.421875 c 0
 304.288085938 112.0078125 292.09765625 158.403320312 316.1328125 192.68359375 c 0
 388.958984375 296.565429688 500.569335938 253.665039062 554.267578125 220.004882812 c 0
EndSplineSet
Fore
SplineSet
581.972696659 264.427224105 m 1
 526.027303341 175.572775895 l 1
 475.797048535 207.199232625 406.136179489 230.032279452 358.930890489 162.780908821 c 1
 353.901677602 155.656190566 334.111573526 65.6446684873 207.383613389 32.2345699056 c 0
 166.150470448 21.4354134211 150.422247657 -14.9451022148 157.193132364 -40.5109983798 c 0
 162.20207975 -59.4240702069 184.268826242 -92.5 271 -92.5 c 0
 897 -92.5 l 1
 897 -197.5 l 1
 271 -197.5 l 0
 156.227818053 -197.5 76.4378238579 -145.724008708 55.6924642705 -67.3924859998 c 0
 33.0034129389 18.278139864 87.3610972484 109.34149693 180.657500519 133.776269215 c 1
 273.846240499 158.344209756 230.106534452 162.355443177 273.069109511 223.219091179 c 1
 371.863820511 363.967720548 524.202951465 300.800767375 581.972696659 264.427224105 c 1
EndSplineSet
EndChar

StartChar: space
Encoding: 32 32 27
Width: 1000
VWidth: 0
Flags: HW
LayerCount: 2
Back
SplineSet
21441.0507812 621.15625 m 0
 21345.5634766 588.452148438 21164.8535156 518.624023438 21080.796875 431.55078125 c 1
 21397.4863281 105.393554688 l 2
 21419.3095703 83.5703125 21401.1894531 52.3388671875 21367.3798828 52.3388671875 c 2
 21061.6621094 52.3388671875 l 2
 21032.546875 52.53515625 21012.7314453 78.1640625 21012.9560547 106.263671875 c 2
 21014.6962891 670.732421875 l 1
13699.2929688 98.5361328125 m 1
 13699.2929688 -52.6123046875 l 2
 13699.2929688 -110.30859375 13741.3632812 -147.155273438 13798.5185547 -147.155273438 c 2
 14290.2802734 -147.079101562 l 2
 14323.7880859 -146.733398438 14345.1064453 -120.192382812 14344.9707031 -93.080078125 c 2
 14345.1894531 191.303710938 l 2
 14345.1894531 318.920898438 14202.4892578 344.174804688 14130.8105469 297.708984375 c 0
 14081.375 265.663085938 14046.9384766 182.939453125 14086.9707031 117.01953125 c 0
 14134.3095703 39.0703125 14203.8974609 53.3173828125 14305.2089844 52.9638671875 c 2
 14567.2802734 52.0478515625 l 1
22256.4023438 300.048828125 m 1
 22256.4023438 105.099609375 l 2
 22256.4023438 79.1865234375 22229.3222656 52.9375 22204.2402344 52.9375 c 2
 21812.7597656 52.9375 l 2
 21749.4492188 52.9375 21694.7363281 99.615234375 21694.7363281 159.896484375 c 2
 21694.7363281 300.048828125 l 1
6689.44042969 481.560546875 m 0
 6894.19140625 452.495117188 7061.00976562 291.227539062 7061.00976562 104.837890625 c 0
 7061.00976562 74.59765625 7038.35449219 53.18359375 7009.30273438 53.18359375 c 2
 6435.54492188 53.18359375 l 1
6586.69042969 185.857421875 m 0
 6586.69042969 118.205078125 6641.63378906 63.26171875 6709.28613281 63.26171875 c 0
 6776.93945312 63.26171875 6831.8828125 118.205078125 6831.8828125 185.857421875 c 0
 6831.8828125 253.509765625 6776.93945312 308.453125 6709.28613281 308.453125 c 0
 6641.63378906 308.453125 6586.69042969 253.509765625 6586.69042969 185.857421875 c 0
5909.17285156 397.036132812 m 0
 6156.3828125 397.036132812 6254.23242188 275.333984375 6252.48144531 104.697265625 c 0
 6252.48144531 74.4560546875 6229.82714844 53.04296875 6200.77441406 53.04296875 c 2
 5650.56738281 53.04296875 l 1
5801.71289062 185.716796875 m 0
 5801.71289062 118.063476562 5856.65625 63.1201171875 5924.30957031 63.1201171875 c 0
 5991.96191406 63.1201171875 6046.90527344 118.063476562 6046.90527344 185.716796875 c 0
 6046.90527344 253.369140625 5991.96191406 308.3125 5924.30957031 308.3125 c 0
 5856.65625 308.3125 5801.71289062 253.369140625 5801.71289062 185.716796875 c 0
5122.17578125 387.03125 m 0
 5380.74707031 383.044921875 5492.96386719 257.286132812 5489.1640625 105.389648438 c 0
 5489.1640625 75.1494140625 5466.50976562 52.7578125 5437.45703125 52.7578125 c 2
 4872.99023438 52.7578125 l 1
5044.74609375 103.087890625 m 1
 5044.74609375 199.745117188 l 1
 5055.86914062 307.911132812 5185.65625 329.243164062 5263.22265625 209.809570312 c 0
 5325.70410156 113.6015625 5261.14550781 53.6533203125 5195.49023438 53.12109375 c 0
7501.71777344 448.146484375 m 0
 7760.2890625 444.16015625 7872.50585938 257.171875 7868.70605469 105.274414062 c 0
 7868.70605469 75.0341796875 7846.05175781 52.6435546875 7816.99902344 52.6435546875 c 2
 7252.53222656 52.6435546875 l 1
7424.28808594 102.973632812 m 1
 7424.28808594 199.629882812 l 1
 7435.41113281 307.795898438 7565.19824219 329.127929688 7642.76464844 209.694335938 c 0
 7705.24609375 113.487304688 7640.6875 53.5380859375 7575.03320312 53.005859375 c 0
20620.2558594 375.772460938 m 1
 20620.2763672 103.701171875 l 2
 20620.2763672 74.458984375 20597.9121094 51.9443359375 20567.1347656 51.9443359375 c 2
 20484.8730469 51.9443359375 l 1
20436.9775391 375.62890625 m 1
 20436.9775391 103.565429688 l 2
 20436.9775391 74.3232421875 20414.6142578 51.80859375 20383.8603516 51.80859375 c 2
 20301.5966797 51.80859375 l 1
20253.8818359 377.69140625 m 1
 20253.8818359 -96.8984375 l 2
 20253.8818359 -126.155273438 20231.5175781 -148.84375 20200.7558594 -148.655273438 c 2
 19933.71875 -148.16015625 l 2
 19906.3681641 -148.4375 19884.9951172 -120.717773438 19884.9951172 -92.083984375 c 2
 19885.2480469 186.248046875 l 1
19104.8095703 69.18359375 m 0
 19208.9619141 212.759765625 19309.0507812 362.129882812 19424.9726562 319.229492188 c 1
 19474.6298828 298.633789062 19499.5751953 253.17578125 19501.1777344 171.176757812 c 1
 19503.9921875 103.987304688 l 2
 19505.2109375 74.767578125 19481.6357422 52.23046875 19450.859375 52.23046875 c 2
 18909.3574219 52.23046875 l 1
19048.2304688 277.060546875 m 1
 19047.9287109 97.666015625 l 1
18177.1894531 69.1083984375 m 0
 18281.3486328 212.692382812 18381.4306641 362.061523438 18497.3603516 319.162109375 c 1
 18547.0087891 298.56640625 18571.9619141 253.108398438 18573.5654297 171.109375 c 1
 18576.3789062 103.918945312 l 2
 18577.5976562 74.7001953125 18554.0146484 52.1630859375 18523.2382812 52.1630859375 c 2
 18121.3759766 52.1630859375 l 1
18121.3535156 276.90234375 m 1
 18121.3535156 -86.58203125 l 2
 18121.3535156 -115.838867188 18098.9824219 -138.526367188 18068.2275391 -138.338867188 c 2
 17801.1826172 -136.735351562 l 2
 17772.7216797 -136.735351562 17752.4589844 -110.041992188 17752.4589844 -80.65234375 c 2
 17751.5966797 197.6875 l 1
16161.7792969 52.7294921875 m 1
 16623.9833984 52.955078125 l 2
 16684.5361328 53.068359375 16677.6660156 119.475585938 16658.7861328 135.481445312 c 1
 16379.1064453 420.653320312 l 1
 16344.4990234 451.453125 16350.0654297 496.930664062 16376.3603516 511.44140625 c 1
 16475.0341797 572.36328125 16682.8076172 619.051757812 16720.2265625 619.650390625 c 0
17338.5195312 -238.53515625 m 1
 17098.1591797 -238.422851562 l 2
 17049.2167969 -239.265625 17013.4511719 -203.99609375 17013.4882812 -158.372070312 c 2
 17013.3447266 -43.044921875 l 2
 17013.2949219 2.7509765625 17053.8505859 52.57421875 17105.1943359 52.521484375 c 2
 17350.9960938 52.521484375 l 2
 17357.3623047 52.3486328125 17373.5332031 63.0185546875 17374.8203125 69.173828125 c 0
 17376.3554688 77.625 17378.6269531 69.03125 17377.8818359 83.0498046875 c 1
 17336.4277344 83.2080078125 17301.1357422 115.211914062 17270.9003906 148.44140625 c 0
 17232.0273438 191.198242188 17187.546875 267.147460938 17076.6738281 309.603515625 c 0
15511.5419922 52.5791015625 m 1
 15993.8447266 52.5791015625 l 2
 16000.21875 52.40625 16016.3818359 63.076171875 16017.6689453 69.216796875 c 0
 16019.2119141 77.6669921875 16021.4921875 77.404296875 16020.7392578 91.4306640625 c 1
 15979.2773438 91.595703125 15942.8105469 119.318359375 15910.2363281 148.4921875 c 0
 15867.7353516 186.545898438 15821.1025391 239.987304688 15768.9931641 276.686523438 c 0
 15713.8349609 315.522460938 15659.2490234 328.6015625 15617.9140625 339.000976562 c 0
15245.1054688 -220.208007812 m 1
 14956.6298828 -220.087890625 l 2
 14932.9853516 -220.379882812 14914.4863281 -200.16796875 14914.3369141 -173.01171875 c 2
 14914.1982422 4.0048828125 l 1
 14915.3916016 30.39453125 14928.3193359 52.412109375 14958.9394531 52.47265625 c 2
 15245.1396484 52.787109375 l 1
15205.9052734 254.87109375 m 0
 15189.1621094 262.072265625 15173.0419922 267.813476562 15157.7011719 272.177734375 c 0
 15001.6591797 316.409179688 14925.375 216.967773438 15076.6435547 53.337890625 c 0
15010.0283203 422.493164062 m 1
 15010.0283203 422.493164062 l 1
15936.7988281 417.82421875 m 1
 15936.7988281 417.82421875 l 1
15839.9082031 -139.877929688 m 1
 15839.9082031 -139.877929688 l 1
17199.6328125 -94.9296875 m 1
 17199.6328125 -94.9296875 l 1
17280.1416016 331.440429688 m 1
 17280.1416016 331.440429688 l 1
18212.5410156 386.97265625 m 1
 18212.5410156 386.97265625 18212.5507812 386.97265625 18212.5410156 386.97265625 c 1
19140.4853516 389.147460938 m 1
 19140.4853516 389.147460938 l 1
20537.4589844 482.321289062 m 1
 20537.4589844 482.321289062 l 1
20345.1738281 482.7578125 m 1
 20345.1738281 482.7578125 l 1
20440.1992188 576.91015625 m 1
 20440.1992188 576.91015625 l 1
10874.6806641 604.7734375 m 1
 11142.9443359 603.546875 l 2
 11172.140625 603.418945312 11194.640625 581.174804688 11194.640625 550.420898438 c 2
 11194.640625 -0.501953125 l 1
13087.6884766 604.810546875 m 1
 12913.6357422 603.577148438 l 2
 12884.3642578 603.374023438 12861.8642578 581.212890625 12861.8642578 550.451171875 c 2
 12861.8642578 -0.46484375 l 1
13180.4697266 659.485351562 m 1
 13180.4697266 0.2412109375 l 1
12708.4306641 659.637695312 m 1
 12708.4306641 477.060546875 l 2
 12708.4306641 447.818359375 12686.0820312 425.311523438 12655.3046875 425.303710938 c 2
 12573.0576172 425.303710938 l 1
12525.1992188 659.501953125 m 1
 12525.1992188 476.91796875 l 2
 12525.1992188 447.67578125 12502.8496094 425.17578125 12472.0732422 425.17578125 c 2
 12389.75 425.162109375 l 1
12340.9892578 659.833984375 m 1
 12340.9892578 0.212890625 l 1
23613.734375 615.428710938 m 1
 23438.9824219 487.391601562 l 2
 23400.1162109 459.489257812 23411.8925781 435.943359375 23440.6230469 404.978515625 c 1
 23573.3017578 283.924804688 l 1
 23429.7265625 123.82421875 l 2
 23405.1279297 97.3515625 23393.7197266 70.7138671875 23421.1777344 53.0908203125 c 1
 23734.2978516 52.8720703125 l 1
12100.6416016 607.766601562 m 1
 11944.0488281 492.010742188 l 1
 11917.1992188 468.737304688 11892.6523438 456.63671875 11936.2978516 423.721679688 c 1
 12064.2216797 335.650390625 l 1
 11930.0517578 142.567382812 l 2
 11909.7353516 114.236328125 11872.6230469 52.73828125 11927.5097656 52.9990234375 c 2
 12211.1083984 52.396484375 l 1
9767.98144531 0.2734375 m 1
 9768.20703125 483.705078125 l 1
 9748.76269531 616.391601562 9617.14453125 627.227539062 9553.6484375 583.651367188 c 1
 9499.34179688 554.57421875 9462.59765625 469.663085938 9509.97460938 392.984375 c 1
 9564.17675781 314.973632812 9629.3125 341.76953125 9728.22753906 334.7109375 c 0
10766.7734375 637.767578125 m 1
 10614.3925781 57.0615234375 l 1
 10607.2441406 39.4755859375 10574.7373047 38.572265625 10564.7285156 56.8349609375 c 1
 10378.1855469 637.767578125 l 1
9942.06347656 6.8583984375 m 1
 10094.4960938 587.557617188 l 1
 10101.6435547 605.151367188 10134.1523438 606.046875 10144.1601562 587.783203125 c 1
 10330.6279297 6.8583984375 l 1
11617.2412109 567.333984375 m 0
 11742.6806641 490.165039062 11851.0410156 41.8525390625 11561.40625 40.046875 c 0
 11271.8457031 38.248046875 11377.5722656 483.897460938 11499.25 564.353515625 c 0
 11537.1757812 589.44921875 11579.6914062 590.419921875 11617.2412109 567.333984375 c 0
24794.7685547 -144.895507812 m 1
 24169.0175781 -144.77734375 l 1
 23953.3076172 -137.637695312 23965.7021484 50.75 24091.8583984 83.421875 c 0
 24202.2099609 112.0078125 24190.0195312 158.403320312 24214.0546875 192.68359375 c 0
 24286.8808594 296.565429688 24398.4912109 253.665039062 24452.1894531 220.004882812 c 0
25691.6708984 242.287109375 m 1
 25418.0957031 -34.0205078125 l 1
26391.2949219 180.337890625 m 1
 26002.4667969 179.065429688 l 1
26391.2949219 29.62109375 m 1
 26002.4667969 28.3486328125 l 1
26682.5498047 223.33984375 m 0
 26739.7246094 225.770507812 26787.2587891 175.473632812 26787.4179688 122.159179688 c 0
 26787.4179688 68.845703125 26741.5078125 25.7197265625 26686.2519531 25.44140625 c 0
 26630.9892578 25.44140625 26588.0898438 67.1376953125 26583.5898438 120.676757812 c 0
 26579.0820312 174.202148438 26625.3525391 220.961914062 26682.5498047 223.33984375 c 0
27764.4287109 232.669921875 m 0
 27821.6103516 235.092773438 27869.1376953 184.803710938 27869.2958984 131.489257812 c 0
 27869.2958984 78.1826171875 27823.3789062 35.0498046875 27768.1308594 34.771484375 c 0
 27712.8759766 34.771484375 27669.9677734 76.4677734375 27665.46875 130.006835938 c 0
 27660.9609375 183.532226562 27707.2314453 230.291992188 27764.4287109 232.669921875 c 0
27444.4921875 32.228515625 m 1
 27760.0341797 35.3212890625 l 1
27072.6396484 206.337890625 m 0
 27109.9326172 249.756835938 27179.1328125 250.140625 27218.1708984 213.84765625 c 0
 27257.1132812 177.442382812 27257.2558594 114.443359375 27219.7216797 73.8916015625 c 0
 27181.984375 33.53515625 27122.2216797 30.66796875 27080.0429688 63.943359375 c 0
 27037.8808594 97.2109375 27035.3085938 162.94140625 27072.6396484 206.337890625 c 0
27000.5507812 -164.25 m 1
 27213.7998047 68.353515625 l 1
23109.6943359 -222.78125 m 1
 22672.3369141 -222.666992188 l 1
 22456.6279297 -215.524414062 22469.0214844 -27.1357421875 22595.1767578 5.5361328125 c 0
 22705.5380859 34.109375 22696.0341797 78.783203125 22717.3818359 114.796875 c 0
 22770.6582031 204.672851562 22879.7470703 198.776367188 22920.34375 121.260742188 c 0
 22946.3583984 71.57421875 22981.3085938 53.2080078125 23035.6621094 53.212890625 c 2
 23109.6767578 53.21875 l 1
-5519.65527344 680.475585938 m 1
 -5388.70117188 230.705078125 l 1
-5314.7265625 659.807617188 m 1
 -5314.7265625 106.623046875 l 2
 -5314.7265625 74.345703125 -5336.83886719 52.791015625 -5365.24707031 52.791015625 c 2
 -5600.53027344 52.791015625 l 1
-5351.11523438 263.143554688 m 1
 -5451.71777344 262.408203125 l 1
 -5452.89550781 262.408203125 l 1
 -5452.82226562 261.23046875 l 1
 -5451.44140625 210.372070312 -5464.84570312 175.916992188 -5486.6015625 150.028320312 c 0
 -5508.35839844 124.138671875 -5538.57910156 106.78515625 -5571.08691406 90.564453125 c 1
 -5570.57226562 88.3564453125 l 1
 -5490.64941406 89.9755859375 l 1
 -5490.35546875 90.048828125 l 1
 -5490.06054688 90.1220703125 l 1
 -5399.43066406 140.771484375 -5360.58691406 198.916015625 -5349.93847656 261.744140625 c 2
 -5349.71679688 263.142578125 l 1
 -5351.11523438 263.142578125 l 1
 -5351.11523438 263.143554688 l 1
4833.96289062 52.8046875 m 1
 4695.46386719 52.9072265625 l 2
 4650.95214844 53.083984375 4626.51855469 16.6259765625 4658.62597656 -24.9404296875 c 1
 4769.23730469 -158.556640625 l 1
 4788.44628906 -177.765625 4776.82324219 -221.112304688 4726.64355469 -221.112304688 c 2
 4496.58398438 -221.112304688 l 2
 4432.5234375 -221.112304688 4355.25585938 -187.080078125 4355.25585938 -95.6669921875 c 2
 4355.25585938 100.263671875 l 1
3752.11816406 52.6884765625 m 1
 4219.84375 52.6884765625 l 1
4170.37011719 307.239257812 m 0
 3887.13867188 392.618164062 3795.26171875 255.54296875 3993.36621094 63.7333984375 c 0
2356.95898438 52.8154296875 m 1
 2451.65234375 52.8154296875 l 1
 2493.140625 60.54296875 2508.37207031 80.9521484375 2509.27929688 107.125 c 2
 2509.27929688 238.025390625 l 2
 2508.62011719 341.580078125 2636.28417969 371.125976562 2702.84472656 300.690429688 c 0
 2850.37109375 144.573242188 2747.89746094 52.6962890625 2621.38378906 52.6962890625 c 2
 2556.09472656 52.9072265625 l 1
3676.94238281 52.8037109375 m 1
 3565.25292969 52.8271484375 l 2
 3539.6484375 52.8271484375 3518.4296875 72.662109375 3518.4296875 98.220703125 c 1
 3514.46289062 180.728515625 l 2
 3511.45507812 243.31640625 3451.27734375 277.256835938 3383.74121094 239.418945312 c 0
 3344.11035156 217.213867188 3305.28808594 190.9609375 3269.82421875 157.325195312 c 1
 3251.30273438 141.27734375 3249.53222656 104.421875 3270.24121094 85.5302734375 c 1
 3385.09667969 -44.2265625 l 1
 3411.82519531 -70.955078125 3381.39746094 -110.4765625 3345.37695312 -110.288085938 c 2
 3079.73925781 -110.288085938 l 1
 3010.984375 -111.49609375 2964.32421875 -54.177734375 2964.32421875 13.755859375 c 2
 2964.32421875 217.1171875 l 1
2295.90039062 53.0771484375 m 1
 2042.51660156 53.0771484375 l 1
2139.59863281 57.931640625 m 1
 2139.59863281 -84.7783203125 l 2
 2139.59863281 -105.793945312 2123.81542969 -135.1171875 2092.99902344 -135.1171875 c 2
 1956.11425781 -135.1171875 l 2
 1874.08398438 -135.1171875 1777.484375 -79.5771484375 1777.484375 3.5654296875 c 2
 1777.484375 186.079101562 l 1
-4827.31542969 659.77734375 m 1
 -4827.31542969 106.592773438 l 2
 -4827.31542969 74.3154296875 -4849.42773438 52.7607421875 -4877.8359375 52.7607421875 c 2
 -5158.05175781 52.7607421875 l 1
-5009.48925781 564.359375 m 1
 -5009.48925781 59.4873046875 l 1
-5722.77050781 658.766601562 m 1
 -5722.77050781 109.366210938 l 2
 -5722.77050781 77.0888671875 -5744.8828125 52.7607421875 -5773.29101562 52.7607421875 c 2
 -5963.17871094 52.7607421875 l 1
-5904.94433594 658.47265625 m 1
 -5904.94433594 157.299804688 l 1
-4485.19921875 69.6875 m 0
 -4381.046875 213.263671875 -4280.95703125 362.633789062 -4165.03613281 319.734375 c 1
 -4115.37890625 299.137695312 -4090.43359375 253.6796875 -4088.83007812 171.680664062 c 1
 -4086.01660156 104.491210938 l 2
 -4084.796875 75.271484375 -4108.37304688 52.734375 -4139.14941406 52.734375 c 2
 -4604.56933594 52.734375 l 1
-4471.96386719 660.705078125 m 1
 -4471.96386719 87.8330078125 l 1
-1871.85253906 376.676757812 m 1
 -1871.828125 104.60546875 l 2
 -1871.828125 75.36328125 -1894.19238281 52.8642578125 -1924.96972656 52.8486328125 c 2
 -2007.23242188 52.8486328125 l 1
-2055.12988281 376.534179688 m 1
 -2055.12988281 104.469726562 l 2
 -2055.12988281 75.228515625 -2077.49414062 52.720703125 -2108.24804688 52.720703125 c 2
 -2190.52539062 52.720703125 l 1
-2237.57714844 376.752929688 m 1
 -2237.55371094 104.680664062 l 2
 -2237.55371094 75.439453125 -2259.91796875 52.939453125 -2290.69433594 52.9248046875 c 2
 -2469.22753906 52.9248046875 l 1
-1361.60058594 376.509765625 m 1
 -1361.57617188 104.438476562 l 2
 -1361.57617188 75.1962890625 -1383.94042969 52.6962890625 -1414.71777344 52.681640625 c 2
 -1702.9609375 52.681640625 l 1
-3530.17773438 52.431640625 m 1
 -3818.45996094 52.431640625 l 1
 -3879.36914062 53.4951171875 -3925.62597656 103.455078125 -3922.54199219 155.423828125 c 1
 -3906.90136719 335.272460938 -3659.40722656 387.680664062 -3658.83886719 233.346679688 c 2
 -3658.83886719 -0.734375 l 2
 -3658.83886719 -74.7265625 -3714.1328125 -147.471679688 -3797.0703125 -147.471679688 c 2
 -3989.53125 -147.471679688 l 1
-3217.46386719 187.49609375 m 1
 -3217.46386719 -1.0576171875 l 2
 -3217.46386719 -83.1875 -3276.09863281 -147.631835938 -3356.92285156 -147.631835938 c 2
 -3458.671875 -147.631835938 l 1
-3063.06347656 52.84765625 m 1
 -3188.29199219 52.84765625 l 1
-2895.00976562 659.30859375 m 1
 -2895.00976562 107.331054688 l 2
 -2895.00976562 80.4150390625 -2914.53125 52.8427734375 -2948.69433594 52.8427734375 c 2
 -3035.65820312 52.8427734375 l 1
-2665.39550781 659.751953125 m 1
 -2665.13378906 108.983398438 l 2
 -2665.13378906 105.452148438 -2660.19238281 52.8193359375 -2718.20507812 52.8193359375 c 0
-74.005859375 52.72265625 m 1
 -195.03125 52.72265625 l 1
-227.869140625 187.759765625 m 1
 -227.869140625 -83.4443359375 l 2
 -227.543945312 -109.30078125 -250.43359375 -135.450195312 -279.162109375 -135.450195312 c 2
 -417.755859375 -135.450195312 l 2
 -498.321289062 -135.450195312 -591.747070312 -72.88671875 -591.747070312 -3.064453125 c 2
 -591.747070312 187.169921875 l 1
-1037.25488281 329.643554688 m 0
 -965.600585938 293.192382812 -857.368164062 233.116210938 -851.415039062 103.891601562 c 0
 -850.942382812 80.5166015625 -866.083007812 52.4052734375 -903.881835938 52.4052734375 c 2
 -1167.68652344 52.4052734375 l 1
903.481445312 659.198242188 m 1
 903.481445312 107.220703125 l 2
 903.481445312 80.3056640625 883.959960938 52.732421875 849.796875 52.732421875 c 2
 527.333007812 52.732421875 l 1
764.859375 429.748046875 m 1
 665.072265625 429.748046875 l 2
 644.784179688 429.694335938 650.254882812 421.075195312 654.260742188 412.265625 c 2
 690.143554688 336.1796875 l 2
 694.036132812 326.737304688 700.22265625 318.295898438 682.922851562 318.723632812 c 2
 572.2734375 318.723632812 l 1
1518.60058594 695.625976562 m 1
 1518.60058594 -41.7490234375 l 2
 1518.60058594 -68.6650390625 1499.08007812 -96.23828125 1464.91699219 -96.23828125 c 2
 1205.44628906 -96.7236328125 l 2
 1172.87988281 -96.7236328125 1151.41796875 -76.541015625 1151.41796875 -44.404296875 c 2
 1151.27636719 144.840820312 l 1
-6128.15136719 363.875976562 m 1
 -6128.15136719 105.115234375 l 2
 -6128.15136719 77.28515625 -6151.52734375 52.8740234375 -6179.95507812 52.8740234375 c 2
 -6320.27441406 52.8740234375 l 2
 -6392.2734375 52.8740234375 -6434.47851562 128.799804688 -6382.82910156 185.91015625 c 1
 -6314.109375 250.702148438 -6257.60449219 286.524414062 -6212.39453125 394.806640625 c 0
8778.02734375 768.884765625 m 0
 8570.10253906 424.404296875 8563.50488281 77.68359375 8780.19824219 -289.326171875 c 0
9122.44726562 716.360351562 m 1
 8981.43554688 716.360351562 l 1
 8981.43554688 -236.360351562 l 1
 9123.48046875 -236.360351562 l 1
8489.70605469 717.432617188 m 0
 8413.28125 719.651367188 8348.77832031 680.721679688 8348.77832031 609.995117188 c 2
 8348.77832031 357.614257812 l 2
 8348.77832031 285.270507812 8296.72070312 239.942382812 8208.65722656 239.942382812 c 1
 8295.42773438 239.942382812 8349.34863281 198.786132812 8349.34863281 122.780273438 c 2
 8349.34863281 -114.586914062 l 2
 8349.34863281 -202.681640625 8413.77734375 -237.52734375 8489.70605469 -237.52734375 c 0
-6792.93652344 -239.197265625 m 1
 -6792.93652344 0.6083984375 l 2
 -6792.93652344 28.439453125 -6769.56054688 52.849609375 -6741.1328125 52.849609375 c 2
 -6600.81347656 52.849609375 l 1
-6885.62792969 -262.181640625 m 0
 -6906.0703125 -157.809570312 -6945.31347656 -150.041992188 -6981.80664062 -91.607421875 c 0
 -7016.00488281 -36.8505859375 -6998.66601562 51.2470703125 -7048.65625 52.849609375 c 1
 -7188.97558594 52.849609375 l 1
EndSplineSet
EndChar

StartChar: uni0664.alt
Encoding: 65536 -1 28
Width: 1000
VWidth: 0
Flags: HW
LayerCount: 2
Back
SplineSet
543.967773438 615.428710938 m 1
 369.215820312 487.391601562 l 2
 330.349609375 459.489257812 342.125976562 435.943359375 370.856445312 404.978515625 c 1
 503.53515625 283.924804688 l 1
 359.959960938 123.82421875 l 2
 335.361328125 97.3515625 323.953125 70.7138671875 351.411132812 53.0908203125 c 1
 664.53125 52.8720703125 l 1
EndSplineSet
Fore
SplineSet
513.005918787 657.374720409 m 1
 574.994081213 572.625279591 l 1
 403.566839093 447.238496783 l 1
 405.56010848 444.960639635 406.674825907 443.745955059 407.949858822 442.359798718 c 1
 577.955355614 287.693143741 l 1
 413.981526247 105.5 l 1
 665 105.5 l 1
 665 0.5 l 1
 335.104279019 0.5 l 1
 321.878239698 9.31735954726 l 0
 267.929541762 45.2831581712 281.434362143 105.364586685 302.127337195 135.958009556 c 0
 308.080683249 144.759703506 313.96925506 151.778996649 321.529341993 159.734298045 c 1
 430.044644386 280.306856259 l 1
 334.105665914 367.589686297 l 1
 332.66075079 369.134250739 l 0
 316.62503301 386.27588009 290.245262782 411.817675486 291.788264384 454.028045234 c 0
 292.769017775 480.857546387 307.485267385 502.904622363 323.71328825 517.80092839 c 0
 328.231055507 521.947955572 333.459579735 526.113206366 338.193179722 529.511688407 c 1
 513.005918787 657.374720409 l 1
EndSplineSet
EndChar

StartChar: uni0647.medi
Encoding: 65537 -1 29
Width: 1000
VWidth: 0
Flags: HW
LayerCount: 2
Back
SplineSet
601.958007812 -239.197265625 m 1
 601.958007812 0.6083984375 l 2
 601.958007812 28.439453125 625.333984375 52.849609375 653.76171875 52.849609375 c 2
 794.081054688 52.849609375 l 1
509.266601562 -262.181640625 m 0
 488.82421875 -157.809570312 449.581054688 -150.041992188 413.087890625 -91.607421875 c 0
 378.889648438 -36.8505859375 396.228515625 51.2470703125 346.23828125 52.849609375 c 1
 205.918945312 52.849609375 l 1
EndSplineSet
Fore
SplineSet
654.5 -239 m 1
 549.5 -239 l 1
 549.5 1 l 0
 549.5 13.4875021597 551.818594441 25.5353955883 555.903580518 36.556615654 c 0
 566.665818368 65.5929427043 589.407575749 88.3343737951 618.443384346 99.0964194818 c 0
 629.464604412 103.181405559 641.51249784 105.5 654 105.5 c 0
 794 105.5 l 1
 794 0.5 l 1
 654.756696769 0.5 l 1
 654.671510466 0.426180018692 654.6110929 0.371501495289 654.5 0.243303231038 c 1
 654.5 -239 l 1
560.555338466 -252.085511833 m 1
 457.444661534 -271.914488167 l 1
 440.093917934 -181.690621448 416.678384112 -197.478233149 368.368801535 -119.646127885 c 1
 339.102753558 -72.3039914519 337.312125127 -20.8141782081 331.491586614 0.5 c 1
 206 0.5 l 1
 206 105.5 l 1
 347.049580336 105.5 l 1
 368.02731683 104.66089054 386.139305295 97.5307350802 400.511032598 84.915456411 c 0
 458.257973525 34.2260899374 444.814034076 -43.6202238389 457.656214901 -64.3943398793 c 0
 481.291221467 -102.472961568 537.91087912 -134.334323233 560.555338466 -252.085511833 c 1
EndSplineSet
EndChar

StartChar: u0644_u0627.isol
Encoding: 65538 -1 30
Width: 1000
VWidth: 0
Flags: HW
LayerCount: 2
Back
SplineSet
437.97265625 680.475585938 m 1
 568.926757812 230.705078125 l 1
642.90234375 659.807617188 m 1
 642.90234375 106.623046875 l 2
 642.90234375 74.345703125 620.7890625 52.791015625 592.381835938 52.791015625 c 2
 357.09765625 52.791015625 l 1
606.512695312 263.143554688 m 1
 505.91015625 262.408203125 l 1
 504.733398438 262.408203125 l 1
 504.806640625 261.23046875 l 1
 506.1875 210.372070312 492.783203125 175.916992188 471.02734375 150.028320312 c 0
 449.26953125 124.138671875 419.049804688 106.78515625 386.541992188 90.564453125 c 1
 387.056640625 88.3564453125 l 1
 466.979492188 89.9755859375 l 1
 467.2734375 90.048828125 l 1
 467.567382812 90.1220703125 l 1
 558.198242188 140.771484375 597.041992188 198.916015625 607.690429688 261.744140625 c 2
 607.911132812 263.142578125 l 1
 606.512695312 263.142578125 l 1
 606.512695312 263.143554688 l 1
EndSplineSet
Fore
SplineSet
387.601257347 665.295689783 m 1
 488.398742653 694.704310217 l 1
 619.398742653 245.704310217 l 1
 518.601257347 216.295689783 l 1
 387.601257347 665.295689783 l 1
590.5 660 m 1
 695.5 660 l 1
 695.5 107 l 0
 695.5 74.8791092245 682.018468989 44.7882628987 658.715259052 24.9160235555 c 0
 640.36267282 9.26551930522 616.63248077 0.5 592 0.5 c 0
 357 0.5 l 1
 357 105.5 l 1
 590.408542754 105.5 l 1
 590.445143402 105.795368788 590.5 106.375738915 590.5 107 c 0
 590.5 660 l 1
505 263 m 1
 608 263 l 17
 597 200 559 141 468 90 c 1
 385 90 l 1
 453 123 507 161 505 263 c 1
EndSplineSet
EndChar

StartChar: u0644_u0627.isol.alt1
Encoding: 65539 -1 31
Width: 1000
VWidth: 0
Flags: HW
LayerCount: 2
Back
SplineSet
620.204101562 658.766601562 m 1
 620.204101562 109.366210938 l 2
 620.204101562 77.0888671875 598.091796875 52.7607421875 569.68359375 52.7607421875 c 2
 379.795898438 52.7607421875 l 1
438.030273438 658.47265625 m 1
 438.030273438 157.299804688 l 1
EndSplineSet
Fore
SplineSet
567.5 659 m 1
 672.5 659 l 1
 672.5 109 l 0
 672.5 74.5530315054 657.701642097 41.8264708881 630.758503379 21.1385065004 c 0
 613.912854864 8.2037782858 592.510590471 0.5 570 0.5 c 0
 380 0.5 l 1
 380 105.5 l 1
 567.062456158 105.5 l 1
 567.225524228 106.069144345 567.5 107.399567578 567.5 109 c 0
 567.5 659 l 1
385.5 658 m 1
 490.5 658 l 1
 490.5 157 l 1
 385.5 157 l 1
 385.5 658 l 1
EndSplineSet
EndChar

StartChar: u0644_u0627.isol.alt2
Encoding: 65540 -1 32
Width: 1000
VWidth: 0
Flags: HW
LayerCount: 2
Back
SplineSet
665.368164062 659.77734375 m 1
 665.368164062 106.592773438 l 2
 665.368164062 74.3154296875 643.255859375 52.7607421875 614.84765625 52.7607421875 c 2
 334.631835938 52.7607421875 l 1
483.194335938 564.359375 m 1
 483.194335938 59.4873046875 l 1
EndSplineSet
Fore
SplineSet
612.5 660 m 1
 717.5 660 l 1
 717.5 107 l 0
 717.5 75.608206503 704.931349978 45.5693396278 681.791086683 25.3385782823 c 0
 663.552662268 9.39333137782 639.664203565 0.5 615 0.5 c 0
 335 0.5 l 1
 335 105.5 l 1
 612.427136665 105.5 l 1
 612.434537866 105.571452409 612.5 106.430615355 612.5 107 c 0
 612.5 660 l 1
430.5 564 m 1
 535.5 564 l 1
 535.5 59 l 1
 430.5 59 l 1
 430.5 564 l 1
EndSplineSet
EndChar

StartChar: uni0648.fina
Encoding: 65541 -1 33
Width: 1000
VWidth: 0
Flags: HW
LayerCount: 2
Back
SplineSet
730 104.5 m 1
 730 -0.5 l 1
 653.5 -0.5 l 1
 653.5 -98.3063208308 580.00056632 -199.5 463 -199.5 c 0
 270 -199.5 l 1
 270 -94.5 l 1
 463 -94.5 l 0
 511.99943368 -94.5 548.5 -50.9685657521 548.5 -0.5 c 1
 440.569701039 -0.5 l 1
 351.1987265 0.965097943261 279.656299454 72.5556888885 284.634067515 158.83700194 c 1
 296.841302508 296.168395616 410.753442526 375.656671766 509.088263553 376.41867821 c 0
 581.691658639 376.981289239 652.894502618 326.417049522 653.5 233.170452749 c 1
 653.5 104.5 l 1
 730 104.5 l 1
548.5 104.5 m 1
 548.5 232.829547251 l 1
 548.290440099 265.101772081 536.967066694 271.631561364 509.901894713 271.421830617 c 0
 463.551634678 271.062657779 396.92978705 228.554194779 389.380031202 151.293065329 c 1
 388.856596294 132.373751015 408.3803576 105.328651845 441.48822638 104.5 c 1
 548.5 104.5 l 1
729.676757812 52.431640625 m 1
 441.39453125 52.431640625 l 1
 380.485351562 53.4951171875 334.228515625 103.455078125 337.3125 155.423828125 c 1
 352.953125 335.272460938 600.447265625 387.680664062 601.015625 233.346679688 c 2
 601.015625 -0.734375 l 2
 601.015625 -74.7265625 545.721679688 -147.471679688 462.784179688 -147.471679688 c 2
 270.323242188 -147.471679688 l 1
EndSplineSet
Fore
SplineSet
730 104.5 m 1
 730 -0.5 l 1
 605 -0.5 l 1
 605 104.5 l 1
 730 104.5 l 1
EndSplineSet
Refer: 13 1608 N 1 0 0 1 0 0 2
EndChar

StartChar: uni0631.fina
Encoding: 65542 -1 34
Width: 1000
VWidth: 0
Flags: HW
LayerCount: 2
Back
SplineSet
543.403320312 187.49609375 m 1
 543.403320312 -1.0576171875 l 2
 543.403320312 -83.1875 484.76953125 -147.631835938 403.9453125 -147.631835938 c 2
 302.1953125 -147.631835938 l 1
697.8046875 52.84765625 m 1
 572.575195312 52.84765625 l 1
EndSplineSet
Fore
SplineSet
698 105.5 m 1
 698 0.5 l 1
 573 0.5 l 1
 573 105.5 l 1
 698 105.5 l 1
EndSplineSet
Refer: 3 1585 N 1 0 0 1 0 0 2
EndChar

StartChar: uni0644.int
Encoding: 65543 -1 35
Width: 1000
VWidth: 0
Flags: HW
LayerCount: 2
Back
SplineSet
570.32421875 659.30859375 m 1
 570.32421875 107.331054688 l 2
 570.32421875 80.4150390625 550.802734375 52.8427734375 516.639648438 52.8427734375 c 2
 429.67578125 52.8427734375 l 1
EndSplineSet
Fore
SplineSet
517.5 659 m 1
 622.5 659 l 1
 622.5 107 l 0
 622.5 77.0967859774 610.496818787 46.2826667765 584.986241985 24.7565887591 c 0
 566.966922246 9.55170783706 542.727150068 0.5 517 0.5 c 0
 430 0.5 l 1
 430 105.5 l 1
 517 105.5 l 0
 518 105.5 516.290637077 105.48680373 517.290501986 105.50324041 c 1
 517.391814303 105.864083011 517.5 106.532132816 517.5 107 c 0
 517.5 659 l 1
EndSplineSet
EndChar

StartChar: uni0633.init
Encoding: 65544 -1 36
Width: 1000
VWidth: 0
Flags: HW
LayerCount: 2
Back
SplineSet
798.67578125 376.676757812 m 1
 798.69921875 104.60546875 l 2
 798.69921875 75.36328125 776.3359375 52.8642578125 745.55859375 52.8486328125 c 2
 663.294921875 52.8486328125 l 1
615.3984375 376.534179688 m 1
 615.3984375 104.469726562 l 2
 615.3984375 75.228515625 593.034179688 52.720703125 562.279296875 52.720703125 c 2
 480.002929688 52.720703125 l 1
432.950195312 376.752929688 m 1
 432.973632812 104.680664062 l 2
 432.973632812 75.439453125 410.609375 52.939453125 379.833007812 52.9248046875 c 2
 201.30078125 52.9248046875 l 1
EndSplineSet
Fore
SplineSet
381 376 m 1
 486 376 l 1
 486 104 l 2
 486 44 437 0 380 0 c 2
 201 0 l 1
 201 105 l 1
 400 105 l 17
 401 105 381 84 381 84 c 1
 381 376 l 1
563 376 m 1
 668 376 l 1
 668 104 l 2
 668 44 619 0 562 0 c 2
 480 0 l 1
 480 105 l 1
 582 105 l 17
 583 105 563 84 563 84 c 1
 563 376 l 1
745 376 m 1
 850 376 l 1
 850 104 l 2
 850 44 801 0 744 0 c 2
 662 0 l 1
 662 105 l 1
 764 105 l 17
 765 105 745 84 745 84 c 1
 745 376 l 1
EndSplineSet
EndChar

StartChar: uni066E.init
Encoding: 65545 -1 37
Width: 1000
VWidth: 0
Flags: HW
LayerCount: 2
Back
SplineSet
670.66796875 376.509765625 m 1
 670.692382812 104.438476562 l 2
 670.692382812 75.1962890625 648.328125 52.6962890625 617.55078125 52.681640625 c 2
 329.307617188 52.681640625 l 1
EndSplineSet
Fore
SplineSet
619 376 m 1
 724 376 l 1
 724 104 l 2
 724 44 675 0 618 0 c 2
 329 0 l 1
 329 105 l 1
 638 105 l 17
 639 105 619 84 619 84 c 1
 619 376 l 1
EndSplineSet
EndChar

StartChar: uni06BA.fina
Encoding: 65546 -1 38
Width: 1000
VWidth: 0
Flags: HW
LayerCount: 2
Back
SplineSet
758.870117188 52.72265625 m 1
 637.844726562 52.72265625 l 1
605.006835938 187.759765625 m 1
 605.006835938 -83.4443359375 l 2
 605.333007812 -109.30078125 582.442382812 -135.450195312 553.713867188 -135.450195312 c 2
 415.120117188 -135.450195312 l 2
 334.555664062 -135.450195312 241.129882812 -72.88671875 241.129882812 -3.064453125 c 2
 241.129882812 187.169921875 l 1
EndSplineSet
Fore
SplineSet
759 105.5 m 1
 759 0.5 l 1
 638 0.5 l 1
 638 105.5 l 1
 759 105.5 l 1
552.5 188 m 1
 657.5 188 l 1
 657.5 -83 l 0
 657.5 -90.8605324436 656.562892567 -98.5078266797 654.863419071 -105.825310535 c 0
 648.149901604 -134.73194297 629.737251 -159.99196707 602.708032815 -174.905973693 c 0
 588.583056666 -182.699761379 571.800688706 -187.5 554 -187.5 c 0
 415 -187.5 l 0
 317.658820883 -187.5 188.5 -118.169761298 188.5 -3 c 0
 188.5 187 l 1
 293.5 187 l 1
 293.5 -3 l 0
 293.5 -27.8302387025 350.341179117 -82.5 415 -82.5 c 0
 552.340452845 -82.5 l 1
 552.385498863 -82.4312413021 552.456203507 -82.3160296583 552.5 -82.2331834478 c 1
 552.5 188 l 1
EndSplineSet
EndChar

StartChar: uni0649.fina.alt1
Encoding: 65547 -1 39
Width: 1000
VWidth: 0
Flags: HW
LayerCount: 2
Back
SplineSet
759.208007812 53.0771484375 m 1
 505.82421875 53.0771484375 l 1
602.90625 57.931640625 m 1
 602.90625 -84.7783203125 l 2
 602.90625 -105.793945312 587.123046875 -135.1171875 556.306640625 -135.1171875 c 2
 419.421875 -135.1171875 l 2
 337.391601562 -135.1171875 240.791992188 -79.5771484375 240.791992188 3.5654296875 c 2
 240.791992188 186.079101562 l 1
EndSplineSet
Fore
SplineSet
759 105.5 m 1
 759 0.5 l 1
 506 0.5 l 1
 506 105.5 l 1
 759 105.5 l 1
550.5 58 m 1
 655.5 58 l 1
 655.5 -85 l 0
 655.5 -108.912862743 647.447819389 -132.483258239 630.488306171 -152.663778678 c 0
 614.407604304 -171.798580987 587.789092117 -187.5 556 -187.5 c 0
 419 -187.5 l 0
 322.255251183 -187.5 188.5 -123.323591149 188.5 4 c 0
 188.5 186 l 1
 293.5 186 l 1
 293.5 4 l 0
 293.5 -34.676408851 351.744748817 -82.5 419 -82.5 c 0
 550.5 -82.5 l 1
 550.5 58 l 1
EndSplineSet
EndChar

StartChar: uni0649.fina.alt2
Encoding: 65548 -1 40
Width: 1000
VWidth: 0
Flags: HW
LayerCount: 2
Back
SplineSet
856.30859375 52.8037109375 m 1
 744.620117188 52.8271484375 l 2
 719.015625 52.8271484375 697.796875 72.662109375 697.796875 98.220703125 c 1
 693.829101562 180.728515625 l 2
 690.821289062 243.31640625 630.64453125 277.256835938 563.108398438 239.418945312 c 0
 523.4765625 217.213867188 484.655273438 190.9609375 449.19140625 157.325195312 c 1
 430.669921875 141.27734375 428.8984375 104.421875 449.608398438 85.5302734375 c 1
 564.463867188 -44.2265625 l 1
 591.19140625 -70.955078125 560.764648438 -110.4765625 524.743164062 -110.288085938 c 2
 259.10546875 -110.288085938 l 1
 190.3515625 -111.49609375 143.69140625 -54.177734375 143.69140625 13.755859375 c 2
 143.69140625 217.1171875 l 1
EndSplineSet
Fore
SplineSet
856 105.5 m 1
 856 0.5 l 1
 745 0.5 l 0
 717.617136007 0.5 691.343939832 11.238308918 672.490615979 30.7547708794 c 0
 655.810092079 48.0220078263 645.958534181 73.5055546568 645.509279622 96.5431212873 c 1
 641.559422769 178.502829656 l 0
 641.229676296 185.427505592 639.61210473 190.063372658 637.894848909 193.164750954 c 0
 634.514838407 199.26907803 623.61778235 212.733292493 588.455967697 193.084043128 c 1
 551.850007257 172.950764886 518.184324353 150.28181697 488.296970529 121.95513355 c 1
 602.128390554 -7.85262612654 l 1
 619.954679535 -27.1602630852 626.904772686 -45.7754230923 626.907998961 -67.4140544693 c 0
 626.910041068 -81.1104664348 623.529562393 -93.7949319472 618.352843497 -104.681959375 c 0
 601.719381842 -139.663374612 565.694719247 -162.5 525 -162.5 c 0
 259.706620459 -162.5 l 1
 154.884337258 -163.218172366 91.5 -76.3552715819 91.5 14 c 0
 91.5 217 l 1
 196.5 217 l 1
 196.5 14 l 0
 196.5 -31.2115208779 223.058849639 -58.015372979 258.619585192 -57.5 c 1
 506.011604665 -57.5 l 1
 412.146821741 49.538787545 l 1
 390.955491305 70.3878871869 380.803720357 100.726502475 382.126195548 127.797463867 c 0
 383.291916791 151.659684487 389.760731116 173.767604504 414.175901829 196.355311345 c 1
 451.39948842 232.159389401 496.10095449 262.122264075 537.544032303 284.915956872 c 1
 607.691952163 324.116265029 692.511083748 311.287308531 729.753346527 244.027472226 c 0
 739.874581776 225.748437194 745.416341403 205.006122727 746.440577231 183.497170344 c 0
 750.199485617 105.5 l 1
 856 105.5 l 1
EndSplineSet
EndChar

StartChar: uni0639.init
Encoding: 65549 -1 41
Width: 1000
VWidth: 0
Flags: HW
LayerCount: 2
Back
SplineSet
266.13671875 52.6884765625 m 1
 733.86328125 52.6884765625 l 1
684.389648438 307.239257812 m 0
 401.158203125 392.618164062 309.28125 255.54296875 507.385742188 63.7333984375 c 0
EndSplineSet
Fore
SplineSet
266 0.5 m 1
 266 105.5 l 1
 734 105.5 l 1
 734 0.5 l 1
 266 0.5 l 1
699.102063322 357.280987296 m 1
 668.897936678 256.719012704 l 1
 539.897636993 295.464685755 473.832026912 275.743927972 460.201508895 261.694416971 c 0
 453.098684956 254.373256986 437.42705511 204.594596143 543.547656394 101.689770656 c 1
 470.452343606 26.3102293438 l 1
 365.575133074 128.009342587 303.5677439 251.03781034 384.840064185 334.808387258 c 0
 448.696582275 400.627811898 563.680043533 397.955445536 699.102063322 357.280987296 c 1
EndSplineSet
EndChar

StartChar: uni0647.init.alt1
Encoding: 65550 -1 42
Width: 1000
VWidth: 0
Flags: HW
LayerCount: 2
Back
SplineSet
441.051757812 387.03125 m 0
 699.623046875 383.044921875 811.83984375 257.286132812 808.040039062 105.389648438 c 0
 808.040039062 75.1494140625 785.385742188 52.7578125 756.333007812 52.7578125 c 2
 191.866210938 52.7578125 l 1
363.622070312 103.087890625 m 1
 363.622070312 199.745117188 l 1
 374.745117188 307.911132812 504.532226562 329.243164062 582.098632812 209.809570312 c 0
 644.580078125 113.6015625 580.021484375 53.6533203125 514.366210938 53.12109375 c 0
EndSplineSet
Fore
SplineSet
440.189285868 334.506259968 m 1
 441.810714132 439.493740032 l 1
 718.846973647 435.215187762 864.918217494 289.736911152 860.512618178 104.865113668 c 1
 860.000545018 73.5293750705 849.030405314 49.4037683282 829.748127221 30.3785872763 c 0
 810.439228456 11.3271404948 783.896207545 0.5 756 0.5 c 0
 192 0.5 l 1
 192 105.5 l 1
 755.494982371 105.5 l 1
 758.612472165 223.964612183 681.500827125 330.779440798 440.189285868 334.506259968 c 1
514.795363256 0.506025133434 m 1
 513.204636744 105.493974867 l 1
 541.591906435 105.924085013 555.014401273 121.387820489 554.669459278 137.717564669 c 0
 554.490711932 146.179562512 551.09595655 161.081764965 537.994274873 181.36823982 c 1
 495.224050361 246.62024901 449.959214343 241.888503996 434.959352638 231.914294963 c 0
 426.985267292 226.611899804 419.116256844 217.09701962 416.5 197.016224863 c 1
 416.5 103 l 1
 311.5 103 l 1
 311.5 202.666712968 l 1
 311.770211709 205.319700659 l 0
 316.671995463 253.446304785 340.087328226 294.923416581 376.819579663 319.348652045 c 0
 456.052152155 372.034620475 563.158724758 334.513722282 626.005725127 238.63176018 c 1
 647.348487895 205.584901702 658.953732512 172.709326376 659.646041408 139.935041641 c 0
 661.565845641 49.0504511155 581.741426899 1.52035943105 514.795363256 0.506025133434 c 1
EndSplineSet
EndChar

StartChar: uni0647.init.alt2
Encoding: 65551 -1 43
Width: 1000
VWidth: 0
Flags: HW
LayerCount: 2
Back
SplineSet
457.63671875 397.036132812 m 0
 704.846679688 397.036132812 802.696289062 275.333984375 800.9453125 104.697265625 c 0
 800.9453125 74.4560546875 778.291015625 53.04296875 749.23828125 53.04296875 c 2
 199.03125 53.04296875 l 1
350.176757812 185.716796875 m 0
 350.176757812 118.063476562 405.120117188 63.1201171875 472.7734375 63.1201171875 c 0
 540.42578125 63.1201171875 595.369140625 118.063476562 595.369140625 185.716796875 c 0
 595.369140625 253.369140625 540.42578125 308.3125 472.7734375 308.3125 c 0
 405.120117188 308.3125 350.176757812 253.369140625 350.176757812 185.716796875 c 0
EndSplineSet
Fore
SplineSet
458 344.5 m 1
 458 449.5 l 1
 727.157021063 449.5 855.828559747 303.784851306 853.5 104.692992955 c 1
 853.5 76.6678628138 842.029125189 49.4025052713 822.748127221 30.3785872763 c 0
 803.439228456 11.3271404948 776.896207545 0.5 749 0.5 c 0
 199 0.5 l 1
 199 105.5 l 1
 748.502257228 105.5 l 1
 750.169563048 248.054647638 682.843634431 344.5 458 344.5 c 1
297.5 186 m 0
 297.5 283.373715555 376.610889518 360.5 473 360.5 c 0
 569.797083147 360.5 647.5 282.797150585 647.5 186 c 0
 647.5 89.6109287589 570.373786816 10.5 473 10.5 c 0
 376.03356575 10.5 297.5 89.0335755865 297.5 186 c 0
402.5 186 m 0
 402.5 146.966424414 433.96643425 115.5 473 115.5 c 0
 511.626213184 115.5 542.5 146.389071241 542.5 186 c 0
 542.5 225.202849415 512.202916853 255.5 473 255.5 c 0
 433.389110482 255.5 402.5 224.626284445 402.5 186 c 0
EndSplineSet
EndChar

StartChar: uni0647.init
Encoding: 65552 -1 44
Width: 1000
VWidth: 0
Flags: HW
LayerCount: 2
Back
SplineSet
441.051757812 448.146484375 m 0
 699.623046875 444.16015625 811.83984375 257.171875 808.040039062 105.274414062 c 0
 808.040039062 75.0341796875 785.385742188 52.6435546875 756.333007812 52.6435546875 c 2
 191.866210938 52.6435546875 l 1
363.622070312 102.973632812 m 1
 363.622070312 199.629882812 l 1
 374.745117188 307.795898438 504.532226562 329.127929688 582.098632812 209.694335938 c 0
 644.580078125 113.487304688 580.021484375 53.5380859375 514.3671875 53.005859375 c 0
EndSplineSet
Fore
SplineSet
440.189285868 395.506259968 m 1
 441.810714132 500.493740032 l 1
 731.32488434 496.022478717 864.725408096 280.707823302 860.512533771 104.859948456 c 1
 860.00062976 73.5345607654 849.029303148 49.4026808582 829.748127221 30.3785872763 c 0
 810.439228456 11.3271404948 783.896207545 0.5 756 0.5 c 0
 192 0.5 l 1
 192 105.5 l 1
 755.494982371 105.5 l 1
 758.850207448 232.998552933 668.989286083 391.972669231 440.189285868 395.506259968 c 1
514.795363256 0.506025133434 m 1
 513.204636744 105.493974867 l 1
 541.591906435 105.924085013 555.014401273 121.387820489 554.669459278 137.717564669 c 0
 554.490711932 146.179562512 551.09595655 161.081764965 537.994274873 181.36823982 c 1
 495.946596369 245.517903177 445.130843815 242.145389314 430.218238707 232.25835941 c 0
 423.136483525 227.56316868 416.5 219.998560737 416.5 200 c 0
 416.5 103 l 1
 311.5 103 l 1
 311.5 200 l 0
 311.5 250.335176059 334.246575392 294.610358398 372.19716624 319.771530703 c 0
 451.265109369 372.193432348 562.588614898 335.383505273 626.005725127 238.63176018 c 1
 647.348487895 205.584901702 658.953732512 172.709326376 659.646041408 139.935041641 c 0
 661.565845641 49.0504511155 581.741426899 1.52035943105 514.795363256 0.506025133434 c 1
EndSplineSet
EndChar

StartChar: uni0647.init.alt3
Encoding: 65553 -1 45
Width: 1000
VWidth: 0
Flags: HW
LayerCount: 2
Back
SplineSet
441.163085938 481.560546875 m 0
 645.9140625 452.495117188 812.732421875 291.227539062 812.732421875 104.837890625 c 0
 812.732421875 74.59765625 790.077148438 53.18359375 761.025390625 53.18359375 c 2
 187.267578125 53.18359375 l 1
338.413085938 185.857421875 m 0
 338.413085938 118.205078125 393.356445312 63.26171875 461.008789062 63.26171875 c 0
 528.662109375 63.26171875 583.60546875 118.205078125 583.60546875 185.857421875 c 0
 583.60546875 253.509765625 528.662109375 308.453125 461.008789062 308.453125 c 0
 393.356445312 308.453125 338.413085938 253.509765625 338.413085938 185.857421875 c 0
EndSplineSet
Fore
SplineSet
433.646386135 430.017557165 m 1
 448.353613865 533.982442835 l 1
 673.655499464 502.110468775 865.5 323.594667381 865.5 105 c 0
 865.5 76.362443931 854.092514055 49.4650489525 834.748127221 30.3785872763 c 0
 815.439228456 11.3271404948 788.896207545 0.5 761 0.5 c 0
 187 0.5 l 1
 187 105.5 l 1
 760.499609607 105.5 l 1
 760.074419497 258.018089837 618.640364888 403.847677244 433.646386135 430.017557165 c 1
285.5 186 m 0
 285.5 283.373715555 364.610889518 360.5 461 360.5 c 0
 557.389071241 360.5 636.5 283.373786816 636.5 186 c 0
 636.5 89.0335657505 557.966424414 10.5 461 10.5 c 0
 364.03356575 10.5 285.5 89.0335755865 285.5 186 c 0
390.5 186 m 0
 390.5 146.966424414 421.96643425 115.5 461 115.5 c 0
 500.033575586 115.5 531.5 146.96643425 531.5 186 c 0
 531.5 224.626213184 500.610928759 255.5 461 255.5 c 0
 421.389110482 255.5 390.5 224.626284445 390.5 186 c 0
EndSplineSet
EndChar

StartChar: uni062D.init
Encoding: 65554 -1 46
Width: 1000
VWidth: 0
Flags: HW
LayerCount: 2
Back
SplineSet
671.798828125 417.82421875 m 1
 671.798828125 417.82421875 l 1
574.908203125 -139.877929688 m 1
 574.908203125 -139.877929688 l 1
245.327148438 52.5791015625 m 1
 727.629882812 52.5791015625 l 2
 734.00390625 52.40625 750.166992188 63.076171875 751.454101562 69.216796875 c 0
 752.997070312 77.6669921875 755.27734375 77.404296875 754.524414062 91.4306640625 c 1
 713.0625 91.595703125 676.595703125 119.318359375 644.021484375 148.4921875 c 0
 601.520507812 186.545898438 554.887695312 239.987304688 502.778320312 276.686523438 c 0
 447.620117188 315.522460938 393.034179688 328.6015625 351.69921875 339.000976562 c 0
EndSplineSet
Fore
SplineSet
245 0.5 m 1
 245 105.5 l 1
 612.849484179 105.5 l 1
 611.198040195 106.936321047 610.585807529 107.472542571 609.289232486 108.611957002 c 1
 561.927542606 150.46647364 517.255409154 202.423014141 472.597655164 234.198723711 c 1
 426.703883116 266.741580253 380.70100581 277.960741904 339.55980054 287.995182214 c 1
 364.44019946 390.004817786 l 1
 405.276946093 380.04463568 469.338145823 365.228617408 533.367510809 319.825976781 c 0
 592.786691255 277.546944541 640.05408492 221.5497625 678.710767514 187.388042998 c 1
 711.162659498 158.869713679 738.189340432 143.5 755 143.5 c 0
 803.883758179 143.5 l 1
 807.366581741 94.7404701237 l 0
 809.831749052 60.2281277641 789.929160495 0.5 728 0.5 c 0
 245 0.5 l 1
EndSplineSet
EndChar

StartChar: uni0643.init
Encoding: 65555 -1 47
Width: 1000
VWidth: 0
Flags: HW
LayerCount: 2
Back
SplineSet
220.776367188 52.7294921875 m 1
 682.98046875 52.955078125 l 2
 743.533203125 53.068359375 736.663085938 119.475585938 717.783203125 135.481445312 c 1
 438.103515625 420.653320312 l 1
 403.49609375 451.453125 409.0625 496.930664062 435.357421875 511.44140625 c 1
 534.03125 572.36328125 741.8046875 619.051757812 779.223632812 619.650390625 c 0
EndSplineSet
Fore
SplineSet
221 0.5 m 1
 221 105.5 l 1
 673.409585443 105.5 l 1
 400.485313451 384.272649249 l 0
 392.528768648 392.399761012 385.689752192 401.168480218 380.074886758 410.420391006 c 0
 362.216528639 439.846552335 356.433423442 474.959881098 367.806556949 506.940965467 c 0
 374.939413563 526.998453496 389.499274434 544.901444369 408.363331869 556.251444199 c 1
 522.445600534 626.036357142 724.444525952 671.044698808 777.581599029 672.480835918 c 1
 780.418401403 567.519148097 l 1
 758.782878145 566.682381403 556.049451799 520.861486958 467.66943204 469.3813639 c 1
 468.603668616 466.800766618 470.70728909 462.637805904 475.514686549 457.727350751 c 0
 755.514529383 171.727511284 l 0
 779.456818792 147.272576474 787.769447548 112.467336102 781.55778975 78.0258668856 c 0
 778.522822709 61.1980364914 770.586029458 42.1256816075 754.610517522 26.8755216071 c 0
 735.594131444 8.7225552743 709.299655065 0.5 683 0.5 c 0
 221 0.5 l 1
EndSplineSet
EndChar

StartChar: uni0635.init
Encoding: 65556 -1 48
Width: 1000
VWidth: 0
Flags: HW
LayerCount: 2
Back
SplineSet
434.485351562 389.147460938 m 5
 434.485351562 389.147460938 l 5
398.112304688 69.18359375 m 0
 502.264648438 212.759765625 602.353515625 362.129882812 718.275390625 319.229492188 c 1
 767.932617188 298.633789062 792.877929688 253.17578125 794.48046875 171.176757812 c 1
 797.294921875 103.987304688 l 2
 798.513671875 74.767578125 774.938476562 52.23046875 744.162109375 52.23046875 c 2
 202.66015625 52.23046875 l 1
341.533203125 277.060546875 m 1
 341.231445312 97.666015625 l 1
EndSplineSet
Fore
SplineSet
350.5 93.5 m 1
 443.20703125 222.06640625 564.987304688 431.7109375 737.297851562 367.837890625 c 0
 813.649414062 335.76953125 845.252929688 263.7734375 847.48046875 172.422851562 c 0
 849.47265625 105.6875 l 2
 851.55078125 45.4462890625 801.700195312 -0.5 744 -0.5 c 2
 203 -0.5 l 1
 203 104.5 l 1
 765 104.5 l 1
 765.1796875 104.5 743.459960938 84.5 743.459960938 84.5 c 1
 742.51953125 169.577148438 l 2
 741.724609375 241.459960938 723.829101562 259.053710938 698.71484375 270.150390625 c 0
 648.087890625 287.890625 574 237 447 44 c 1
 350.5 93.5 l 1
288.5 277 m 1
 393.5 277 l 1
 393.5 98 l 1
 288.5 98 l 1
 288.5 277 l 1
EndSplineSet
EndChar

StartChar: uni0643_uni0627.isol
Encoding: 65557 -1 49
Width: 1000
VWidth: 0
Flags: HW
LayerCount: 2
Back
SplineSet
714.047851562 621.15625 m 0
 618.560546875 588.452148438 437.850585938 518.624023438 353.793945312 431.55078125 c 1
 670.483398438 105.393554688 l 2
 692.306640625 83.5703125 674.186523438 52.3388671875 640.376953125 52.3388671875 c 2
 334.659179688 52.3388671875 l 2
 305.543945312 52.53515625 285.728515625 78.1640625 285.953125 106.263671875 c 2
 287.693359375 670.732421875 l 1
EndSplineSet
Fore
SplineSet
696.772916108 670.593120295 m 1
 731.227083892 571.406879705 l 1
 652.727199854 544.138498934 512.689271381 489.551836957 430.258039659 428.636933109 c 1
 707.440621015 141.80559101 l 1
 721.437947419 127.808264605 731.601308643 107.037637021 732.125196455 85.5909513013 c 0
 732.433162412 72.9835782416 729.630913597 60.7217486015 724.586985009 49.9841384459 c 0
 709.024339381 16.8540853906 674.740575099 -0.5 640 -0.5 c 0
 335 -0.5 l 0
 311.352618181 -0.5 289.427029525 8.14542334657 272.935495601 21.5211694789 c 0
 247.014828244 42.5445786865 233.5 73.8918079082 233.5 106 c 0
 233.5 671 l 1
 338.5 671 l 1
 338.5 489.571052581 l 1
 440.4552774 578.085618818 606.804670784 639.340992972 696.772916108 670.593120295 c 1
338.5 372.490032181 m 1
 338.5 106 l 0
 338.5 105.511898324 338.556943501 105.004801121 338.673377113 104.5 c 1
 597.47507697 104.5 l 1
 338.5 372.490032181 l 1
EndSplineSet
EndChar

StartChar: uni06D2.fina
Encoding: 65558 -1 50
Width: 1000
VWidth: 0
Flags: HW
LayerCount: 2
Back
SplineSet
802.649414062 -222.78125 m 1
 365.291992188 -222.666992188 l 1
 149.583007812 -215.524414062 161.9765625 -27.1357421875 288.131835938 5.5361328125 c 0
 398.493164062 34.109375 388.989257812 78.783203125 410.336914062 114.796875 c 0
 463.61328125 204.672851562 572.702148438 198.776367188 613.298828125 121.260742188 c 0
 639.313476562 71.57421875 674.263671875 53.2080078125 728.6171875 53.212890625 c 2
 802.631835938 53.21875 l 1
EndSplineSet
Fore
SplineSet
803 -170.5 m 1
 803 -275.5 l 1
 365 -275.5 l 0
 250.238649703 -275.5 170.562254899 -223.549102347 149.727860659 -145.246773205 c 0
 126.887716042 -59.4061914815 181.04363731 32.2583526608 274.657500519 56.7762692153 c 1
 367.409141483 81.2289745604 331.532929091 84.678351219 364.706300568 141.546988037 c 1
 383.82890963 174.019343049 409.510114007 198.620573523 438.925360623 214.177574923 c 0
 517.873891679 255.931513764 616.149758957 227.843384509 659.52523126 145.324193299 c 1
 676.989289234 111.739466425 689.14212472 105.5 729 105.5 c 0
 803 105.5 l 1
 803 0.5 l 1
 729 0.5 l 0
 660.85787528 0.5 601.010710766 30.2605335746 566.47476874 96.6758067011 c 1
 550.260178931 127.523075118 517.123755016 136.754339405 488.014683913 121.359266713 c 0
 476.792883563 115.424332152 465.140034469 105.173203535 455.293699432 88.4530119626 c 1
 446.473249817 73.3322411936 428.550290732 -11.2396697038 301.383613389 -44.7654300944 c 0
 260.271209108 -55.5329645489 244.26804432 -92.2052827495 251.197427752 -118.248125944 c 0
 256.306409946 -137.449318007 278.490019685 -170.5 365 -170.5 c 0
 803 -170.5 l 1
EndSplineSet
EndChar

StartChar: braceleft
Encoding: 123 123 51
Width: 1000
VWidth: 0
Flags: HW
LayerCount: 2
Back
SplineSet
640.524414062 717.432617188 m 17
 564.099609375 719.651367188 499.596679688 680.721679688 499.596679688 609.995117188 c 2
 499.596679688 357.614257812 l 2
 499.596679688 285.270507812 447.5390625 239.942382812 359.475585938 239.942382812 c 1
 446.24609375 239.942382812 500.166992188 198.786132812 500.166992188 122.780273438 c 2
 500.166992188 -114.586914062 l 2
 500.166992188 -202.681640625 564.595703125 -237.52734375 640.524414062 -237.52734375 c 9
EndSplineSet
Fore
SplineSet
641 -185.5 m 1
 641 -290.5 l 1
 549.993294005 -290.5 447.5 -239.845517663 447.5 -115 c 0
 447.5 123 l 0
 447.5 157.082506393 435.822498587 171.320083234 406.411926108 180.963113147 c 0
 394.315771967 184.929155505 378.388610139 187.5 359 187.5 c 1
 359 188.5 358 292.5 359 292.5 c 1
 378.245696618 292.5 393.906493242 295.310841502 405.904007372 299.559846421 c 0
 435.436253205 310.018901226 447.5 326.883005865 447.5 358 c 0
 447.5 610 l 0
 447.5 722.568077004 552.410300894 771.849483395 642.38110081 769.481830766 c 1
 639.61889919 664.518169234 l 1
 577.589699106 666.150516605 552.5 639.431922996 552.5 610 c 0
 552.5 358 l 0
 552.5 313.571969623 536.80205113 271.574952348 506.211519889 240.937779429 c 1
 538.550447255 208.982759132 552.5 168.521360939 552.5 123 c 0
 552.5 -115 l 0
 552.5 -166.154482337 580.006705995 -185.5 641 -185.5 c 1
EndSplineSet
EndChar

StartChar: parenleft
Encoding: 40 40 52
Width: 1000
VWidth: 0
Flags: HW
LayerCount: 2
Back
SplineSet
577.990234375 768.884765625 m 0
 370.065429688 424.404296875 363.467773438 77.68359375 580.161132812 -289.326171875 c 0
EndSplineSet
Fore
SplineSet
533.074070862 796.164515293 m 1
 622.925929138 741.835484707 l 1
 423.931470548 412.729264732 416.946832786 89.9129667606 625.191286739 -262.279266424 c 1
 534.808713261 -315.720733576 l 1
 309.053167214 66.0870332393 316.068529452 437.270735268 533.074070862 796.164515293 c 1
EndSplineSet
EndChar

StartChar: bracketleft
Encoding: 91 91 53
Width: 1000
VWidth: 0
Flags: HW
LayerCount: 2
Back
SplineSet
569.989257812 716.360351562 m 5
 428.977539062 716.360351562 l 5
 428.977539062 -236.360351562 l 5
 571.022460938 -236.360351562 l 5
EndSplineSet
Fore
SplineSet
570 768.5 m 1
 570 663.5 l 1
 481.5 663.5 l 1
 481.5 -183.5 l 1
 571 -183.5 l 1
 571 -288.5 l 1
 376.5 -288.5 l 1
 376.5 768.5 l 1
 570 768.5 l 1
EndSplineSet
EndChar

StartChar: uni064B
Encoding: 1611 1611 54
Width: 0
VWidth: 0
Flags: HW
LayerCount: 2
Back
SplineSet
194.4140625 180.337890625 m 1
 -194.4140625 179.065429688 l 1
194.4140625 29.62109375 m 1
 -194.4140625 28.3486328125 l 1
EndSplineSet
Fore
SplineSet
194 194 m 1
 194 164 l 1
 -194 164 l 1
 -194 194 l 1
 194 194 l 1
193.961340335 43.9999501809 m 1
 194.038659665 14.0000498191 l 1
 -193.961340335 13.0000498191 l 1
 -194.038659665 42.9999501809 l 1
 193.961340335 43.9999501809 l 1
EndSplineSet
EndChar

StartChar: uni064E
Encoding: 1614 1614 55
Width: 0
VWidth: 0
Flags: HW
LayerCount: 2
Back
SplineSet
136.787109375 242.287109375 m 1
 -136.787109375 -34.0205078125 l 1
EndSplineSet
Fore
SplineSet
126.354899202 252.567962386 m 1
 147.645100798 231.432037614 l 1
 -126.354899202 -44.5679623864 l 1
 -147.645100798 -23.4320376136 l 1
 126.354899202 252.567962386 l 1
EndSplineSet
EndChar

StartChar: uni064F
Encoding: 1615 1615 56
Width: 0
VWidth: 0
Flags: HW
LayerCount: 2
Back
SplineSet
-51.4501953125 206.337890625 m 0
 -14.1572265625 249.756835938 55.04296875 250.140625 94.0810546875 213.84765625 c 0
 133.0234375 177.442382812 133.166015625 114.443359375 95.6318359375 73.8916015625 c 0
 57.89453125 33.53515625 -1.8681640625 30.66796875 -44.046875 63.943359375 c 0
 -86.208984375 97.2109375 -88.78125 162.94140625 -51.4501953125 206.337890625 c 0
-123.5390625 -164.25 m 1
 89.7099609375 68.353515625 l 1
EndSplineSet
Fore
SplineSet
-39.6298368933 196.21637128 m 0
 -71.9114484307 158.699903818 -68.8522460783 102.603008149 -34.732676721 75.7947750823 c 0
 1.36328424603 47.4336628939 52.5903611208 50.0842446916 85.0613618856 84.2642454966 c 1
 117.719026997 119.500147328 116.258689411 173.039895144 83.825798459 202.977948331 c 0
 50.9602768792 233.315352866 -8.54921733732 232.337091305 -39.6298368933 196.21637128 c 0
-62.3701631067 215.78362872 m 0
 -19.4507826627 265.662908695 59.0397231208 266.684647134 104.174201541 225.022051669 c 0
 149.741310589 182.960104856 150.280973003 110.499852672 106.938638114 63.7357545034 c 1
 63.4096388792 17.9157553084 -5.36328424603 14.5663371061 -53.267323279 52.2052249177 c 0
 -103.147753922 91.3969918512 -104.088551569 167.300096182 -62.3701631067 215.78362872 c 0
-112.974304983 -174.170253162 m 1
 -135.025695017 -153.829746838 l 1
 78.9743049828 78.1702531624 l 1
 101.025695017 57.8297468376 l 1
 -112.974304983 -174.170253162 l 1
EndSplineSet
EndChar

StartChar: uni0652
Encoding: 1618 1618 57
Width: 0
VWidth: 0
Flags: HW
LayerCount: 2
Back
SplineSet
-2.8017578125 223.33984375 m 0
 54.373046875 225.770507812 101.907226562 175.473632812 102.06640625 122.159179688 c 0
 102.06640625 68.845703125 56.15625 25.7197265625 0.900390625 25.44140625 c 0
 -54.3623046875 25.44140625 -97.26171875 67.1376953125 -101.76171875 120.676757812 c 0
 -106.26953125 174.202148438 -59.9990234375 220.961914062 -2.8017578125 223.33984375 c 0
EndSplineSet
Fore
SplineSet
-2.474007898 208.009225093 m 0
 -52.2884155974 206.261351139 -91.1410989559 166.416831079 -87.0511728871 122.245629537 c 1
 -83.5999751803 75.6544604938 -46.0676102179 40 1 40 c 0
 48.1813561298 40 87 77.8891564165 87 122 c 0
 87 166.526915887 45.563067168 209.694736499 -2.474007898 208.009225093 c 0
-3.525992102 237.990774907 m 0
 62.436932832 240.305263501 117 183.473084113 117 122 c 0
 117 60.1108435835 63.8186438702 10 1 10 c 0
 -61.9323897821 10 -112.40002482 58.3455395062 -116.948827113 119.754370463 c 1
 -122.858901044 183.583168921 -67.7115844026 235.738648861 -3.525992102 237.990774907 c 0
EndSplineSet
EndChar

StartChar: uni064F.alt
Encoding: 65559 -1 58
Width: 0
VWidth: 0
Flags: HW
LayerCount: 2
Back
SplineSet
107.534179688 232.669921875 m 0
 164.716796875 235.092773438 212.244140625 184.803710938 212.401367188 131.489257812 c 0
 212.401367188 78.1826171875 166.484375 35.0498046875 111.237304688 34.771484375 c 0
 55.982421875 34.771484375 13.0732421875 76.4677734375 8.5751953125 130.006835938 c 0
 4.0673828125 183.532226562 50.337890625 230.291992188 107.534179688 232.669921875 c 0
-212.401367188 32.228515625 m 1
 103.140625 35.3212890625 l 1
EndSplineSet
Fore
SplineSet
108.525992102 218.009225093 m 0
 58.9135752809 216.268438538 19.8465305018 175.550432936 23.9488271129 131.245629537 c 1
 27.4037432577 84.6042615813 63.8603582784 50 111 50 c 0
 158.389683239 50 197 87.0352973511 197 131 c 0
 197 175.868463875 156.233458895 219.683171296 108.525992102 218.009225093 c 0
107.474007898 247.990774907 m 0
 173.766541105 250.316828704 227 192.131536125 227 131 c 0
 227 68.9647026489 173.610316761 20 111 20 c 0
 48.1396417216 20 -1.4037432577 67.3957384187 -5.94882711287 128.754370463 c 1
 -11.8465305018 192.449567064 43.0864247191 245.731561462 107.474007898 247.990774907 c 0
-211.857149335 17.0006802258 m 1
 -212.142850665 46.9993197742 l 1
 102.857149335 49.9993197742 l 1
 103.142850665 20.0006802258 l 1
 -211.857149335 17.0006802258 l 1
EndSplineSet
EndChar

StartChar: uni06A1.fina
Encoding: 65560 -1 59
Width: 1000
VWidth: 0
Flags: HW
LayerCount: 2
Back
SplineSet
66 99 m 1
 66 -53 l 2
 66 -111 108 -147 165 -147 c 2
 657 -147 l 2
 691 -147 712 -120 712 -93 c 2
 712 191 l 2
 712 319 570 344 498 298 c 0
 449 266 414 183 454 117 c 0
 501 39 571 53 672 53 c 2
 934 53 l 1
EndSplineSet
Fore
SplineSet
764.5 105.5 m 1
 934 105.5 l 1
 934 0.5 l 1
 764.5 0.5 l 1
 764.5 -93 l 0
 764.5 -127.993091871 747.241611928 -162.234918134 715.808301475 -182.501619183 c 0
 699.064117186 -193.297471494 678.539222912 -199.5 657 -199.5 c 0
 165 -199.5 l 0
 84.1166039231 -199.5 13.5 -141.760341099 13.5 -53 c 0
 13.5 99 l 1
 118.5 99 l 1
 118.5 -53 l 0
 118.5 -80.2396589009 131.883396077 -94.5 165 -94.5 c 0
 657 -94.5 l 0
 658.746346241 -94.5 658.910634657 -94.253655424 658.910634657 -94.253655424 c 1
 658.983802891 -94.1934762877 659.483124815 -93.2622663821 659.5 -92.9948459369 c 1
 659.5 0.431796911471 l 1
 575.955073261 -0.470288779276 471.695218684 -14.0890923975 409.067267919 89.846655681 c 1
 351.058304266 185.561445707 400.163077314 296.810248992 469.513360714 342.100229988 c 1
 546.286245835 391.14957326 676.898030796 385.708460053 737.53766351 289.682070184 c 0
 754.950380034 262.108019505 764.5 228.265095452 764.5 191 c 0
 764.5 105.5 l 1
659.5 105.437043279 m 1
 659.5 191 l 0
 659.5 210.619424019 655.013670514 223.556319357 648.982651853 233.259495399 c 0
 627.629524676 267.614081862 561.888959625 276.213382339 526.49024375 253.901471823 c 1
 497.304859487 234.53101806 477.051213004 180.257850797 498.932732081 144.153344319 c 1
 526.109368896 99.0516917335 554.286853565 104.379978952 659.5 105.437043279 c 1
EndSplineSet
EndChar

StartChar: uni066F
Encoding: 1647 1647 60
Width: 1000
VWidth: 0
Flags: HW
LayerCount: 2
Back
SplineSet
66 99 m 1
 66 -53 l 2
 66 -111 108 -147 165 -147 c 2
 657 -147 l 2
 691 -147 712 -120 712 -93 c 2
 712 191 l 2
 712 319 570 344 498 298 c 0
 449 266 414 183 454 117 c 0
 501 39 571 53 672 53 c 2
EndSplineSet
Fore
SplineSet
659.5 0.431796911471 m 1
 575.955073261 -0.470288779276 471.695218684 -14.0890923975 409.067267919 89.846655681 c 1
 351.058304266 185.561445707 400.163077314 296.810248992 469.513360714 342.100229988 c 1
 546.286245835 391.14957326 676.898030796 385.708460053 737.53766351 289.682070184 c 0
 754.950380034 262.108019505 764.5 228.265095452 764.5 191 c 0
 764.5 -93 l 0
 764.5 -127.993091871 747.241611928 -162.234918134 715.808301475 -182.501619183 c 0
 699.064117186 -193.297471494 678.539222912 -199.5 657 -199.5 c 0
 235 -199.5 l 0
 154.116603923 -199.5 83.5 -141.760341099 83.5 -53 c 0
 83.5 189 l 1
 188.5 189 l 1
 188.5 -53 l 0
 188.5 -80.2396589009 201.883396077 -94.5 235 -94.5 c 0
 657 -94.5 l 0
 658.746346241 -94.5 658.910634657 -94.253655424 658.910634657 -94.253655424 c 1
 658.983802891 -94.1934762877 659.483124815 -93.2622663821 659.5 -92.9948459369 c 1
 659.5 0.431796911471 l 1
659.5 105.437043279 m 1
 659.5 191 l 0
 659.5 210.619424019 655.013670514 223.556319357 648.982651853 233.259495399 c 0
 627.629524676 267.614081862 561.888959625 276.213382339 526.49024375 253.901471823 c 1
 497.304859487 234.53101806 477.051213004 180.257850797 498.932732081 144.153344319 c 1
 526.109368896 99.0516917335 554.286853565 104.379978952 659.5 105.437043279 c 1
EndSplineSet
EndChar

StartChar: uni066F.fina
Encoding: 65561 -1 61
Width: 1000
VWidth: 0
Flags: HW
LayerCount: 2
Back
SplineSet
136 189 m 1
 136 -53 l 2
 136 -111 178 -147 235 -147 c 2
 657 -147 l 2
 691 -147 712 -120 712 -93 c 2
 712 191 l 2
 712 319 570 344 498 298 c 0
 449 266 414 183 454 117 c 0
 501 39 571 53 672 53 c 2
 934 53 l 1
EndSplineSet
Fore
SplineSet
764.5 105.5 m 1
 934 105.5 l 1
 934 0.5 l 1
 764.5 0.5 l 1
 764.5 -93 l 0
 764.5 -127.993091871 747.241611928 -162.234918134 715.808301475 -182.501619183 c 0
 699.064117186 -193.297471494 678.539222912 -199.5 657 -199.5 c 0
 235 -199.5 l 0
 154.116603923 -199.5 83.5 -141.760341099 83.5 -53 c 0
 83.5 189 l 1
 188.5 189 l 1
 188.5 -53 l 0
 188.5 -80.2396589009 201.883396077 -94.5 235 -94.5 c 0
 657 -94.5 l 0
 658.746346241 -94.5 658.910634657 -94.253655424 658.910634657 -94.253655424 c 1
 658.983802891 -94.1934762877 659.483124815 -93.2622663821 659.5 -92.9948459369 c 1
 659.5 0.431796911471 l 1
 575.955073261 -0.470288779276 471.695218684 -14.0890923975 409.067267919 89.846655681 c 1
 351.058304266 185.561445707 400.163077314 296.810248992 469.513360714 342.100229988 c 1
 546.286245835 391.14957326 676.898030796 385.708460053 737.53766351 289.682070184 c 0
 754.950380034 262.108019505 764.5 228.265095452 764.5 191 c 0
 764.5 105.5 l 1
659.5 105.437043279 m 1
 659.5 191 l 0
 659.5 210.619424019 655.013670514 223.556319357 648.982651853 233.259495399 c 0
 627.629524676 267.614081862 561.888959625 276.213382339 526.49024375 253.901471823 c 1
 497.304859487 234.53101806 477.051213004 180.257850797 498.932732081 144.153344319 c 1
 526.109368896 99.0516917335 554.286853565 104.379978952 659.5 105.437043279 c 1
EndSplineSet
EndChar

StartChar: uni066F.init
Encoding: 65562 -1 62
Width: 1000
VWidth: 0
Flags: HW
LayerCount: 2
Back
SplineSet
672 53 m 6
 934 53 l 5
EndSplineSet
Fore
SplineSet
659.5 140.431796911 m 1
 575.955073261 139.529711221 471.695218684 125.910907603 409.067267919 229.846655681 c 1
 351.058304266 325.561445707 400.163077314 436.810248992 469.513360714 482.100229988 c 1
 546.286245835 531.14957326 676.898030796 525.708460053 737.53766351 429.682070184 c 0
 754.950380034 402.108019505 764.5 368.265095452 764.5 331 c 0
 764.5 107 l 0
 764.5 72.0069081291 747.241611928 37.7650818664 715.808301475 17.4983808167 c 0
 699.064117186 6.70252850599 678.539222912 0.5 657 0.5 c 0
 305 0.5 l 1
 305 105.5 l 1
 657 105.5 l 0
 658.746346241 105.5 658.910634657 105.746344576 658.910634657 105.746344576 c 1
 658.983802891 105.806523712 659.483124815 106.737733618 659.5 107.005154063 c 1
 659.5 140.431796911 l 1
659.5 245.437043279 m 1
 659.5 331 l 0
 659.5 350.619424019 655.013670514 363.556319357 648.982651853 373.259495399 c 0
 627.629524676 407.614081862 561.888959625 416.213382339 526.49024375 393.901471823 c 1
 497.304859487 374.53101806 477.051213004 320.257850797 498.932732081 284.153344319 c 1
 526.109368896 239.051691733 554.286853565 244.379978952 659.5 245.437043279 c 1
EndSplineSet
EndChar

